<?xml version="1.0" standalone="no"?>

<!DOCTYPE svg PUBLIC "-//W3C//DTD SVG 20010904//EN"

 "http://www.w3.org/TR/2001/REC-SVG-20010904/DTD/svg10.dtd">

<svg version="1.0" xmlns="http://www.w3.org/2000/svg"

 width="300.000000pt" height="200.000000pt" viewBox="0 0 300.000000 200.000000"

 preserveAspectRatio="xMidYMid meet">

<path fill="#fefefe" stroke="none" d="
M0 100

L0 0

L150 0

L300 0

L300 100

L300 200

L150 200

L0 200

L0 100

Z

"/>

<path fill="#e8f4f8" stroke="none" d="
M57 186

C49 185 45 184 42 179

C41 177 41 177 42 174

C44 169 48 164 54 160

C62 154 69 150 79 148

C92 145 103 146 130 152

C142 155 153 158 153 158

C154 158 154 156 154 154

C154 152 154 151 155 153

C155 154 155 155 156 157

C156 158 157 159 160 160

L164 161

L164 157

L165 154

L165 157

C165 161 165 161 170 162

C190 166 216 166 237 162

C250 159 255 157 260 152

C264 148 265 145 263 140

C260 136 254 133 239 130

C237 129 239 129 241 130

C246 130 258 134 261 136

C262 137 264 139 265 141

C268 144 268 145 266 148

C264 151 258 157 253 159

C250 160 243 162 236 164

C225 166 222 166 203 166

C188 166 180 166 175 165

C170 164 166 163 166 163

C166 163 165 164 164 166

C163 168 162 170 161 171

C159 172 159 172 161 169

C163 164 164 162 162 162

C161 162 160 162 158 161

C157 161 156 161 156 164

C155 166 150 173 150 172

C150 171 151 169 152 167

C153 165 154 162 154 162

C154 161 147 159 131 155

C96 146 82 146 65 155

C57 159 47 167 45 171

C43 177 43 178 46 181

C49 184 49 184 65 186

C74 187 68 187 57 186

Z

M79 185

C81 185 83 185 85 185

C86 186 85 186 82 186

C79 186 78 186 79 185

Z

M91 184

C91 184 93 184 93 184

C94 185 93 185 92 185

C91 185 90 185 91 184

Z

M98 183

C99 183 99 183 100 183

C100 184 99 184 98 184

C97 184 97 184 98 183

Z

M230 128

C231 128 233 128 234 128

C235 129 234 129 232 129

C230 129 229 129 230 128

Z

M222 127

C223 127 225 127 226 127

C227 128 226 128 224 128

C222 128 221 128 222 127

Z

M202 126

C205 126 209 126 212 126

C215 126 213 127 207 127

C201 127 199 126 202 126

Z

"/>

<path fill="#cae5ee" stroke="none" d="
M57 186

C49 185 45 184 42 179

C41 177 41 177 42 174

C44 169 48 164 54 160

C62 154 69 150 79 148

C92 145 103 146 130 152

C142 155 153 158 153 158

C154 158 154 156 154 154

C154 152 154 151 155 153

C155 154 155 155 156 157

C156 158 157 159 160 160

L164 161

L164 157

L165 154

L165 157

C165 161 165 161 170 162

C190 166 216 166 237 162

C244 160 251 158 252 157

C258 155 262 151 264 148

C265 145 265 145 263 141

C260 136 255 133 239 130

C237 129 239 129 241 130

C246 130 258 134 261 136

C262 137 264 139 265 141

C268 144 268 145 266 148

C264 151 258 157 253 159

C250 160 243 162 236 164

C225 166 222 166 203 166

C188 166 180 166 175 165

C170 164 166 163 166 163

C166 163 165 164 164 166

C163 168 162 170 161 171

C159 172 159 172 161 169

C163 164 164 162 162 162

C161 162 160 162 158 161

C157 161 156 161 156 164

C155 166 150 173 150 172

C150 171 151 169 152 167

C153 165 154 162 154 162

C154 161 147 159 131 155

C103 148 92 147 80 149

C65 153 48 164 45 172

C41 181 45 184 60 185

C66 186 71 186 72 186

C73 187 65 187 57 186

Z

M79 185

C81 185 83 185 85 185

C86 186 85 186 82 186

C79 186 78 186 79 185

Z

M91 184

C91 184 93 184 93 184

C94 185 93 185 92 185

C91 185 90 185 91 184

Z

M98 183

C99 183 99 183 100 183

C100 184 99 184 98 184

C97 184 97 184 98 183

Z

M230 128

C231 128 233 128 234 128

C235 129 234 129 232 129

C230 129 229 129 230 128

Z

M222 127

C223 127 225 127 226 127

C227 128 226 128 224 128

C222 128 221 128 222 127

Z

M202 126

C205 126 209 126 212 126

C215 126 213 127 207 127

C201 127 199 126 202 126

Z

"/>

<path fill="#a8d5e4" stroke="none" d="
M57 186

C49 185 45 184 42 179

C41 177 41 177 42 174

C44 169 48 164 54 160

C62 154 69 150 79 148

C92 145 103 146 130 152

C142 155 153 158 153 158

C154 158 154 156 154 154

C154 152 154 151 155 153

C155 154 155 155 156 157

C156 158 157 159 160 160

L164 161

L164 157

L165 154

L165 157

C165 161 165 161 170 162

C190 166 216 166 237 162

C251 159 255 157 261 151

C266 146 266 145 263 141

C260 136 254 133 239 130

C237 129 239 129 241 130

C249 130 259 134 263 138

C267 142 268 144 266 148

C265 151 257 157 252 159

C250 160 243 162 236 164

C225 166 222 166 203 166

C188 166 180 166 175 165

C170 164 166 163 166 163

C166 163 165 164 164 166

C163 168 162 170 161 171

C159 172 159 172 161 169

C163 164 164 162 162 162

C161 162 160 162 158 161

C157 161 156 161 156 164

C155 166 150 173 150 172

C150 171 151 169 152 167

C153 165 154 162 154 162

C154 161 147 159 131 155

C103 148 92 147 80 149

C65 153 48 164 45 172

C41 181 45 184 60 185

C66 186 71 186 72 186

C73 187 65 187 57 186

Z

M79 185

C81 185 83 185 85 185

C86 186 85 186 82 186

C79 186 78 186 79 185

Z

M91 184

C91 184 93 184 93 184

C94 185 93 185 92 185

C91 185 90 185 91 184

Z

M98 183

C99 183 99 183 100 183

C100 184 99 184 98 184

C97 184 97 184 98 183

Z

M230 128

C231 128 233 128 234 128

C235 129 234 129 232 129

C230 129 229 129 230 128

Z

M222 127

C223 127 225 127 226 127

C227 128 226 128 224 128

C222 128 221 128 222 127

Z

M202 126

C205 126 209 126 212 126

C215 126 213 127 207 127

C201 127 199 126 202 126

Z

"/>

<path fill="#9ed0e0" stroke="none" d="
M57 186

C49 185 45 184 42 179

C41 177 41 177 42 174

C44 169 48 164 54 160

C62 154 69 150 79 148

C92 145 103 146 130 152

C142 155 153 158 153 158

C154 158 154 156 154 154

C154 152 154 151 155 153

C155 154 155 155 156 157

C156 158 157 159 160 160

L164 161

L164 157

L165 154

L165 157

C165 161 165 161 170 162

C190 166 216 166 237 162

C251 159 255 157 261 151

C266 146 266 145 263 141

C260 136 254 133 239 130

C237 129 239 129 241 130

C249 130 259 134 263 138

C267 142 268 144 266 148

C265 151 257 157 252 159

C250 160 243 162 236 164

C225 166 222 166 203 166

C188 166 180 166 175 165

C170 164 166 163 166 163

C166 163 165 164 164 166

C163 168 162 170 161 171

C159 172 159 172 161 169

C163 164 164 162 162 162

C161 162 160 162 158 161

C157 161 156 161 156 164

C155 166 150 173 150 172

C150 171 151 169 152 167

C153 165 154 162 154 162

C154 161 147 159 131 154

C108 149 107 149 95 149

C84 149 80 149 75 151

C60 155 46 166 44 174

C43 178 43 178 46 181

C48 183 50 184 53 184

C56 185 61 185 65 186

C74 187 68 187 57 186

Z

M79 185

C81 185 83 185 85 185

C86 186 85 186 82 186

C79 186 78 186 79 185

Z

M91 184

C91 184 93 184 93 184

C94 185 93 185 92 185

C91 185 90 185 91 184

Z

M98 183

C99 183 99 183 100 183

C100 184 99 184 98 184

C97 184 97 184 98 183

Z

M230 128

C231 128 233 128 234 128

C235 129 234 129 232 129

C230 129 229 129 230 128

Z

M222 127

C223 127 225 127 226 127

C227 128 226 128 224 128

C222 128 221 128 222 127

Z

M202 126

C205 126 209 126 212 126

C215 126 213 127 207 127

C201 127 199 126 202 126

Z

"/>

<path fill="#6db8d1" stroke="none" d="
M57 186

C49 185 45 184 42 179

C41 177 41 177 42 174

C44 169 48 164 54 160

C62 154 69 150 79 148

C92 145 103 146 130 152

C142 155 153 158 153 158

C154 158 154 156 154 154

C154 152 154 151 155 153

C155 154 155 155 156 157

C156 158 157 159 160 160

L164 161

L164 157

L165 154

L165 157

C165 161 165 161 170 162

C190 166 216 166 237 162

C251 159 255 157 261 151

C266 146 266 145 263 141

C260 136 254 133 239 130

C237 129 239 129 241 130

C249 130 259 134 263 138

C267 142 268 144 266 148

C265 151 257 157 252 159

C250 160 243 162 236 164

C225 166 222 166 203 166

C188 166 180 166 175 165

C170 164 166 163 166 163

C166 163 165 164 164 166

C163 168 162 170 161 171

C159 172 159 172 161 169

C163 164 164 162 162 162

C161 162 160 162 158 161

C157 161 156 161 156 164

C155 166 150 173 150 172

C150 171 151 169 152 167

C153 165 154 162 154 162

C154 161 147 159 131 155

C103 148 92 147 80 149

C62 153 43 168 43 177

C43 180 48 184 53 184

C56 185 61 185 65 186

C74 187 68 187 57 186

Z

M79 185

C81 185 83 185 85 185

C86 186 85 186 82 186

C79 186 78 186 79 185

Z

M91 184

C91 184 93 184 93 184

C94 185 93 185 92 185

C91 185 90 185 91 184

Z

M98 183

C99 183 99 183 100 183

C100 184 99 184 98 184

C97 184 97 184 98 183

Z

M230 128

C231 128 233 128 234 128

C235 129 234 129 232 129

C230 129 229 129 230 128

Z

M222 127

C223 127 225 127 226 127

C227 128 226 128 224 128

C222 128 221 128 222 127

Z

M202 126

C205 126 209 126 212 126

C215 126 213 127 207 127

C201 127 199 126 202 126

Z

"/>

<path fill="#67b5cf" stroke="none" d="
M57 186

C49 185 45 184 42 179

C41 177 41 177 42 174

C44 169 48 164 54 160

C62 154 69 150 79 148

C92 145 103 146 130 152

C142 155 153 158 153 158

C154 158 154 156 154 154

C154 152 154 151 155 153

C155 154 155 155 156 157

C156 158 157 159 160 160

L164 161

L164 157

L165 154

L165 157

C165 161 165 161 170 162

C190 166 216 166 237 162

C251 159 255 157 261 151

C266 146 266 143 262 139

C258 135 253 133 242 130

C236 129 236 129 240 130

C249 130 259 134 263 138

C267 142 268 144 266 148

C265 151 257 157 252 159

C250 160 243 162 236 164

C225 166 222 166 203 166

C188 166 180 166 175 165

C170 164 166 163 166 163

C166 163 165 164 164 166

C163 168 162 170 161 171

C159 172 159 172 161 169

C163 164 164 162 162 162

C161 162 160 162 158 161

C157 161 156 161 156 164

C155 166 150 173 150 172

C150 171 151 169 152 167

C153 165 154 162 154 162

C154 161 147 159 131 155

C103 148 92 147 80 149

C62 153 43 168 43 177

C43 180 48 184 53 184

C56 185 61 185 65 186

C74 187 68 187 57 186

Z

M79 185

C81 185 83 185 85 185

C86 186 85 186 82 186

C79 186 78 186 79 185

Z

M91 184

C91 184 93 184 93 184

C94 185 93 185 92 185

C91 185 90 185 91 184

Z

M98 183

C99 183 99 183 100 183

C100 184 99 184 98 184

C97 184 97 184 98 183

Z

M230 128

C231 128 233 128 234 128

C235 129 234 129 232 129

C230 129 229 129 230 128

Z

M222 127

C223 127 225 127 226 127

C227 128 226 128 224 128

C222 128 221 128 222 127

Z

M202 126

C205 126 209 126 212 126

C215 126 213 127 207 127

C201 127 199 126 202 126

Z

"/>

<path fill="#50aac8" stroke="none" d="
M57 186

C49 185 45 184 42 179

C41 177 41 177 42 174

C44 169 48 164 54 160

C62 154 69 150 79 148

C92 145 103 146 130 152

C142 155 153 158 153 158

C154 158 154 156 154 154

C154 152 154 151 155 153

C155 154 155 155 156 157

C156 158 157 159 160 160

L164 161

L164 157

L165 154

L165 157

C165 161 165 161 170 162

C190 166 216 166 237 162

C251 159 255 157 261 151

C266 146 266 144 262 139

C258 135 253 133 242 130

C236 129 236 129 240 130

C249 130 259 134 263 138

C267 142 268 144 266 148

C265 151 257 157 252 159

C250 160 243 162 236 164

C225 166 222 166 203 166

C188 166 180 166 175 165

C170 164 166 163 166 163

C166 163 165 164 164 166

C163 168 162 170 161 171

C159 172 159 172 161 169

C163 164 164 162 162 162

C161 162 160 162 158 161

C157 161 156 161 156 164

C155 166 150 173 150 172

C150 171 151 169 152 167

C153 165 154 162 154 162

C154 161 147 159 131 155

C103 148 92 147 80 149

C62 153 43 168 43 177

C43 180 48 184 53 184

C56 185 61 185 65 186

C74 187 68 187 57 186

Z

M79 185

C81 185 83 185 85 185

C86 186 85 186 82 186

C79 186 78 186 79 185

Z

M91 184

C91 184 93 184 93 184

C94 185 93 185 92 185

C91 185 90 185 91 184

Z

M98 183

C99 183 99 183 100 183

C100 184 99 184 98 184

C97 184 97 184 98 183

Z

M230 128

C231 128 233 128 234 128

C235 129 234 129 232 129

C230 129 229 129 230 128

Z

M222 127

C223 127 225 127 226 127

C227 128 226 128 224 128

C222 128 221 128 222 127

Z

M202 126

C205 126 209 126 212 126

C215 126 213 127 207 127

C201 127 199 126 202 126

Z

"/>

</svg>

