<?xml version="1.0" standalone="no"?>

<!DOCTYPE svg PUBLIC "-//W3C//DTD SVG 20010904//EN"

 "http://www.w3.org/TR/2001/REC-SVG-20010904/DTD/svg10.dtd">

<svg version="1.0" xmlns="http://www.w3.org/2000/svg"

 width="700.000000pt" height="200.000000pt" viewBox="0 0 700.000000 200.000000"

 preserveAspectRatio="xMidYMid meet">

<path fill="#fdfefd" stroke="none" d="
M0 100

L0 0

L350 0

L700 0

L700 100

L700 200

L350 200

L0 200

L0 100

Z

"/>

<path fill="#6abf8d" stroke="none" d="
M59 194

C57 194 56 194 55 193

C53 192 58 191 65 191

C71 191 71 191 69 192

C66 194 61 195 59 194

Z

M35 193

C34 193 35 192 36 193

C38 193 39 194 37 194

C36 194 35 194 35 193

Z

M35 188

C35 186 34 185 33 185

C32 185 30 184 28 183

C26 181 25 180 25 177

C25 175 25 173 24 172

C23 171 23 168 22 165

C21 161 21 159 23 154

C24 151 26 147 27 146

L29 142

L27 141

C22 137 25 129 32 127

C33 127 38 124 42 121

C56 112 68 107 82 105

C88 104 101 105 110 107

C113 107 116 107 120 106

C132 104 140 102 139 103

C139 104 138 104 138 104

C137 104 136 105 135 106

C134 107 134 107 136 107

C141 106 158 104 174 103

C183 102 188 101 185 101

C182 101 178 100 177 100

L175 99

L178 99

C184 97 192 97 196 98

L201 98

L197 100

C193 101 193 101 201 101

L210 100

L203 102

C193 106 192 109 202 107

C206 107 216 106 226 105

C243 104 251 103 268 101

C273 100 280 99 282 99

L287 98

L283 100

C278 102 279 103 294 104

C300 104 313 105 323 106

L341 108

L356 106

C365 105 375 104 379 103

L386 103

L378 106

L370 108

L377 110

C382 110 390 110 404 110

C428 109 434 108 441 106

C444 105 450 103 454 103

C461 102 505 100 515 100

C531 100 582 102 585 103

C591 104 573 105 552 105

C536 104 532 104 529 106

C526 107 526 107 528 108

C529 108 535 109 541 109

C547 110 552 110 552 111

C553 111 549 112 544 112

C535 113 533 114 537 115

C541 117 573 117 604 116

C623 115 638 115 639 116

C642 117 641 117 633 118

C629 118 623 119 621 119

C618 119 618 120 618 122

C618 125 625 126 641 124

C658 122 677 122 685 123

C689 124 691 124 691 125

C691 125 682 125 671 126

C660 126 650 127 649 127

C647 128 642 128 637 129

C632 129 627 130 625 131

C622 131 614 133 606 134

C598 136 589 138 586 139

C578 140 570 144 570 145

C570 146 573 148 582 151

C590 154 590 154 586 154

C584 154 578 153 574 152

C567 150 563 150 534 150

C506 150 502 150 499 148

C497 147 496 147 492 148

C490 148 486 149 483 149

L478 149

L483 147

C487 146 485 146 459 146

C443 146 428 146 426 146

C423 146 412 146 402 146

C385 146 365 147 356 149

C352 149 352 152 356 152

C359 152 364 154 364 155

C364 156 349 157 334 158

C328 158 320 158 317 159

C306 162 280 165 227 168

C207 169 195 170 192 169

C188 168 180 169 178 171

C176 172 163 174 151 174

C142 175 139 176 134 178

C125 181 114 183 98 183

C90 184 80 185 76 185

C71 186 64 187 59 187

C51 187 48 188 38 190

C35 190 35 190 35 188

Z

M121 178

C126 176 127 176 124 176

C120 176 93 179 90 179

C86 181 115 179 121 178

Z

M132 175

C131 175 131 175 130 175

C129 176 129 176 130 176

C131 176 132 176 132 175

Z

M251 162

C268 161 299 159 318 157

C320 156 310 156 297 157

C267 157 244 159 216 164

L207 165

L219 164

C225 164 240 163 251 162

Z

M249 154

C248 154 248 154 247 154

C246 155 246 155 247 155

C248 155 249 155 249 154

Z

M427 139

C427 138 420 138 412 138

C404 137 397 138 398 138

C398 139 404 139 411 139

C418 139 425 140 426 140

C428 140 428 140 427 139

Z

M394 138

C393 138 391 138 390 138

C389 139 390 139 392 139

C394 139 395 139 394 138

Z

M272 171

C264 169 265 168 274 168

C284 168 288 169 283 170

C281 171 279 171 278 171

C277 172 274 171 272 171

Z

M292 168

C293 167 307 164 318 163

C327 162 327 163 318 166

C310 168 290 170 292 168

Z

M371 156

C369 155 369 155 370 154

C372 153 378 153 378 154

C378 154 377 155 376 156

C374 157 374 157 371 156

Z

M431 155

C424 154 437 151 447 153

L454 153

L448 155

C441 156 435 156 431 155

Z

M466 151

C468 150 472 150 472 151

C471 152 469 152 467 152

C464 152 464 152 466 151

Z

M616 148

C617 147 616 147 612 147

C608 147 604 146 603 146

C600 145 600 145 602 145

C603 144 608 144 613 143

C618 143 623 142 624 142

C626 141 646 142 668 144

C673 144 661 146 646 147

C636 148 625 148 622 148

C617 149 615 149 616 148

Z

M624 145

C623 145 623 145 622 145

C621 146 621 146 622 146

C623 146 624 146 624 145

Z

M586 146

C579 143 587 142 595 146

L599 148

L594 148

C591 148 587 147 586 146

Z

M650 129

C650 129 652 129 652 129

C653 130 652 130 651 130

C650 130 649 130 650 129

Z

M659 129

C659 127 659 127 666 128

L671 130

L665 130

C661 130 659 130 659 129

Z

M654 115

C653 114 660 112 664 112

L668 113

L664 114

C661 116 654 117 654 115

Z

M570 110

C568 109 568 109 571 108

C574 108 577 107 579 108

C583 108 583 108 581 110

C578 111 573 111 570 110

Z

M384 109

C383 108 388 105 391 105

C394 105 393 107 389 109

C386 110 384 110 384 109

Z

M605 104

C603 103 614 101 616 102

C618 102 618 102 616 104

C614 105 607 105 605 104

Z

M92 103

C92 102 95 101 98 99

C107 95 119 93 155 92

C197 90 208 90 206 91

C205 92 192 93 177 94

C161 94 141 96 132 96

C123 97 114 98 112 98

C108 98 100 100 94 103

C93 103 92 103 92 103

Z

M235 101

C229 100 232 99 245 98

C265 96 269 97 254 100

C246 102 243 102 235 101

Z

M569 95

C567 94 567 94 570 94

C572 93 576 93 579 93

C582 93 586 93 588 94

C591 94 591 94 589 95

C588 95 583 96 579 96

C575 96 570 95 569 95

Z

M283 91

C286 89 293 87 293 89

C293 91 288 93 284 93

L281 93

L283 91

Z

M212 91

C211 90 217 90 232 90

C243 90 256 90 261 90

C268 89 269 89 266 90

C261 92 212 93 212 91

Z

"/>

<path fill="#199c4f" stroke="none" d="
M58 193

C57 192 68 190 69 191

C70 192 64 194 61 194

C59 194 58 194 58 193

Z

M36 188

C35 188 35 187 36 186

C37 186 36 185 34 185

C29 184 26 181 26 178

C26 177 25 173 24 170

C21 162 22 157 26 148

L29 142

L27 140

C25 139 24 134 26 132

C28 130 32 127 31 129

C30 130 32 129 34 128

C36 126 40 124 43 122

C46 120 48 118 48 118

C48 117 62 111 70 109

C79 106 87 105 97 106

C102 106 106 107 107 107

C108 109 117 108 125 106

C134 104 137 104 133 106

C131 106 130 107 130 107

C131 108 139 107 152 105

C157 105 168 104 178 103

C188 102 198 102 200 101

L205 101

L201 102

C192 106 192 109 202 108

C206 107 214 107 221 106

C246 104 257 103 269 101

C284 99 285 99 280 101

L276 103

L288 104

C295 105 301 105 301 105

C302 104 308 105 328 107

C338 109 341 109 348 108

C378 104 383 103 376 106

C373 107 371 108 371 109

C370 112 430 111 439 108

C444 105 449 104 458 104

L466 103

L459 105

C455 105 451 106 451 107

C449 107 453 107 470 104

C491 101 507 100 542 101

C585 102 592 104 558 104

C536 104 530 104 528 106

C526 106 525 107 525 108

C525 108 529 109 535 109

C547 110 549 111 541 112

C533 113 532 115 539 116

C544 118 579 118 612 117

C639 116 645 116 628 118

C617 119 615 120 617 123

C618 125 627 126 638 125

C643 125 648 124 648 124

C648 125 624 130 606 134

C582 138 569 142 569 145

C569 146 572 148 577 150

C587 153 585 154 574 151

C568 150 561 150 534 149

C504 149 501 149 499 147

C497 146 497 146 492 147

C489 148 486 149 484 149

C481 149 481 149 486 148

L491 146

L484 146

C475 144 372 146 362 147

C353 148 351 149 353 151

C354 153 353 153 342 153

C333 153 331 153 333 154

C335 155 340 155 348 154

C356 153 361 153 361 154

C364 157 305 157 301 154

C300 153 284 152 283 153

C283 154 287 154 292 154

C297 154 301 154 301 154

C301 155 294 155 287 155

C280 156 270 157 266 157

C262 158 258 158 258 158

C257 157 208 163 200 165

C197 166 197 166 203 166

C212 166 265 162 290 160

C301 159 312 158 314 158

C318 158 318 158 312 160

C296 163 203 170 193 169

C186 168 173 170 174 171

C174 172 174 172 173 172

C173 172 162 173 149 174

C109 176 86 178 81 180

L79 181

L81 182

C83 183 83 183 77 185

C73 185 64 186 56 187

C48 187 40 188 39 189

C38 189 36 189 36 188

Z

M173 167

C174 167 164 167 162 168

C160 169 162 169 166 168

C170 168 173 168 173 167

Z

M218 157

C217 157 211 160 211 161

C210 161 212 161 214 160

C217 158 219 157 218 157

Z

M243 156

C247 156 256 155 264 154

C279 154 285 153 276 153

C259 152 239 154 229 157

C227 158 227 158 232 158

C234 157 239 157 243 156

Z

M547 143

C545 143 542 143 540 143

C538 143 540 144 544 144

C547 144 549 143 547 143

Z

M560 141

C563 140 562 140 555 140

C549 140 546 140 547 141

C547 142 554 142 560 141

Z

M398 140

C405 140 419 140 429 140

C439 140 447 140 446 140

C446 139 444 139 441 139

C438 139 440 138 445 138

C453 138 452 137 435 137

C410 135 366 137 366 139

C366 140 368 140 370 140

C374 139 374 139 373 140

C372 141 373 141 379 140

C382 140 391 140 398 140

Z

M539 140

C540 140 537 139 533 139

C526 139 526 139 530 140

C537 141 539 141 539 140

Z

M301 138

C306 137 306 137 298 137

C293 137 287 137 285 136

C278 135 267 137 267 139

C267 140 269 140 281 139

C289 139 298 139 301 138

Z

M599 130

C600 129 597 129 592 129

C588 129 584 129 584 130

C584 131 595 130 599 130

Z

M597 128

C598 127 594 127 588 127

C582 127 577 127 576 128

C575 129 592 128 597 128

Z

M506 103

L515 102

L507 102

C502 102 496 103 492 104

L486 105

L491 104

C494 104 501 103 506 103

Z

M87 182

C83 182 86 181 97 181

C109 180 117 179 132 176

L136 176

L132 177

C124 181 97 184 87 182

Z

M272 170

C271 170 270 169 270 169

C270 168 272 168 275 168

C278 169 282 169 283 169

C285 169 285 169 283 170

C279 171 276 171 272 170

Z

M301 167

C305 166 310 165 314 165

L321 164

L316 166

C314 166 308 167 303 168

L295 168

L301 167

Z

M371 155

C370 154 370 154 373 154

C376 154 377 154 377 155

C376 156 373 156 371 155

Z

M432 154

C433 153 437 153 442 153

C447 153 449 153 447 154

C443 155 430 155 432 154

Z

M588 147

C583 145 583 144 588 145

C592 145 596 147 596 147

C596 148 592 148 588 147

Z

M622 147

C626 146 625 144 621 145

C619 146 614 146 610 146

C598 146 607 144 621 144

C628 144 633 143 631 143

C630 142 631 142 634 143

C636 143 644 143 651 144

C658 144 664 144 664 145

C663 145 657 146 650 146

C642 146 632 147 628 147

C621 148 619 148 622 147

Z

M655 124

C657 123 660 123 663 123

C666 123 666 123 664 124

C662 124 658 125 656 125

L651 125

L655 124

Z

M676 123

C677 123 679 123 680 123

C681 124 680 124 678 124

C676 124 675 124 676 123

Z

M656 114

C657 114 659 113 662 113

C665 113 665 113 664 114

C662 114 660 115 658 115

C654 115 654 115 656 114

Z

M571 109

C573 108 580 108 580 109

C580 110 578 110 575 110

C571 110 570 110 571 109

Z

M385 107

C387 107 389 106 390 106

L393 106

L390 108

C389 108 387 109 386 109

C384 109 384 109 385 107

Z

M607 104

C606 103 610 102 615 102

L619 102

L615 104

C611 105 609 105 607 104

Z

M468 102

C468 102 470 102 470 102

C471 103 470 103 469 103

C468 103 467 103 468 102

Z

M181 100

L177 99

L181 99

C188 98 198 98 196 99

C192 100 185 101 181 100

Z

M237 100

C238 100 244 99 250 99

C258 98 260 98 258 99

C253 100 234 101 237 100

Z

M101 99

C106 96 121 94 136 94

C143 93 157 93 167 92

C176 91 189 91 194 91

C203 91 202 91 189 92

C135 95 116 97 108 98

C97 100 97 100 101 99

Z

M573 95

C570 94 570 94 575 94

C577 93 582 93 584 94

C588 94 588 94 586 95

C582 96 578 96 573 95

Z

M284 91

C285 91 287 90 289 89

L293 89

L289 91

C284 93 281 94 284 91

Z

M214 91

C213 90 215 90 218 90

C222 90 223 90 222 91

C220 92 214 92 214 91

Z

M231 90

C231 90 233 90 233 90

C234 91 233 91 232 91

C231 91 230 91 231 90

Z

M244 90

C246 90 249 90 251 90

C253 90 251 91 248 91

C244 91 242 90 244 90

Z

"/>

</svg>

