<?xml version="1.0" standalone="no"?>

<!DOCTYPE svg PUBLIC "-//W3C//DTD SVG 20010904//EN"

 "http://www.w3.org/TR/2001/REC-SVG-20010904/DTD/svg10.dtd">

<svg version="1.0" xmlns="http://www.w3.org/2000/svg"

 width="300.000000pt" height="200.000000pt" viewBox="0 0 300.000000 200.000000"

 preserveAspectRatio="xMidYMid meet">

<path fill="#fefefe" stroke="none" d="
M0 100

L0 0

L150 0

L300 0

L300 100

L300 200

L150 200

L0 200

L0 100

Z

"/>

<path fill="#ffe6d4" stroke="none" d="
M111 187

C111 185 123 177 133 172

C137 170 143 166 148 164

C153 161 157 159 157 159

C157 160 160 158 165 155

C169 153 178 148 184 145

C196 139 198 137 197 136

C196 136 179 139 171 141

C167 142 163 143 162 143

C159 144 149 147 131 153

C125 154 120 156 119 156

C118 156 114 157 109 159

C105 161 101 162 100 162

C99 162 95 164 90 165

C86 167 81 169 80 169

C78 170 74 171 71 172

C67 174 63 175 63 174

C62 174 65 172 67 172

C67 173 68 172 68 172

C68 171 69 171 69 171

C71 171 72 171 80 167

C87 165 107 157 113 156

C115 155 121 153 126 151

C132 150 136 148 137 148

C137 148 142 147 147 145

C161 141 176 137 178 137

C179 136 183 136 187 135

C194 133 195 133 198 134

C203 136 203 137 199 139

C196 142 185 148 184 148

C183 148 180 150 177 152

C173 154 170 156 169 156

C169 156 167 157 165 159

C163 160 161 161 161 160

C161 160 158 161 155 163

C151 165 146 168 142 170

C133 175 126 179 123 181

C121 182 120 183 119 183

C119 183 118 183 118 184

C117 185 120 184 130 181

C132 180 139 178 145 176

C151 174 159 171 164 170

C169 168 174 167 176 167

C179 166 196 162 209 158

C214 157 219 156 219 156

C219 157 224 156 229 155

C233 153 238 152 239 152

C240 152 243 152 246 151

C249 150 251 150 252 150

C253 151 252 152 246 152

C243 153 239 154 237 154

C234 156 227 157 224 157

C222 158 215 159 211 161

C209 161 205 162 203 162

C201 163 196 164 192 165

C188 166 183 167 182 168

C180 168 169 171 150 177

C145 179 140 180 140 180

C139 180 135 182 130 184

C120 187 111 189 111 187

Z

M23 185

C23 184 23 184 24 184

C25 184 25 184 25 185

C25 186 25 186 24 186

C23 186 23 186 23 185

Z

M28 184

C28 183 28 183 29 183

C29 183 29 183 29 184

C29 185 29 185 28 185

C27 185 27 185 28 184

Z

M39 182

C38 181 38 181 39 181

C40 181 40 181 40 182

C40 183 40 183 40 183

C39 183 39 183 39 182

Z

M60 175

C60 174 60 174 61 174

C62 174 62 174 62 175

C62 176 62 176 61 176

C60 176 60 176 60 175

Z

M253 150

C253 149 259 148 260 149

C261 149 260 150 259 150

C255 151 253 151 253 150

Z

M263 148

C263 148 265 148 265 148

C266 149 265 149 264 149

C263 149 262 149 263 148

Z

M269 148

C268 147 269 147 269 147

C270 147 271 147 271 148

C271 149 271 149 270 149

C270 149 269 149 269 148

Z

M274 147

C274 146 275 146 275 146

C276 146 276 146 276 147

C276 148 275 148 274 148

C274 148 273 148 274 147

Z

M280 146

C280 145 281 145 281 145

C282 145 282 145 282 146

C282 147 281 147 280 147

C280 147 279 147 280 146

Z

M287 146

C286 145 287 145 287 145

C288 145 289 145 289 146

C289 147 289 147 288 147

C288 147 287 147 287 146

Z

"/>

<path fill="#ffdcc3" stroke="none" d="
M112 187

C111 187 112 186 112 185

C116 182 125 176 130 174

C132 173 137 170 141 168

C144 166 148 164 151 163

C153 162 156 160 158 159

C159 158 163 156 167 155

C170 153 176 149 181 147

C185 145 190 142 192 141

C194 140 195 139 195 140

C195 140 196 140 196 139

C199 137 197 136 192 137

C190 137 186 137 185 137

C181 138 153 145 135 151

C130 153 124 154 123 155

C120 155 104 160 83 168

C77 170 71 172 71 172

C71 171 72 171 74 170

C75 169 80 168 84 166

C87 165 95 162 100 160

C105 158 110 156 111 156

C112 156 116 155 120 154

C135 149 171 138 175 137

C176 137 181 136 186 135

C193 133 194 133 197 134

C199 135 201 136 201 137

C201 138 195 143 188 146

C184 148 179 150 176 152

C168 157 167 157 147 167

C140 171 132 175 129 177

C126 179 123 181 123 181

C123 180 121 181 119 183

L116 186

L124 183

C132 180 150 174 154 174

C155 173 159 172 163 171

C167 169 172 168 173 167

C175 167 180 166 185 165

C190 163 194 162 196 162

C197 162 201 161 205 160

C208 159 213 158 215 157

C218 157 229 155 244 151

C251 150 252 150 251 151

C251 152 250 152 250 152

C249 151 244 152 240 154

C235 155 229 156 227 157

C224 157 219 158 216 159

C212 160 207 161 206 161

C204 162 198 163 179 168

C169 171 168 171 155 175

C148 177 139 180 134 182

C128 184 122 186 120 187

C115 188 112 188 112 187

Z

M61 175

C60 174 60 174 61 174

C62 174 62 174 62 175

C62 176 62 176 62 176

C61 176 61 176 61 175

Z

M63 174

C63 173 66 172 67 173

C67 173 67 174 66 174

C64 175 63 175 63 174

Z

M254 150

C254 149 254 149 255 149

C255 149 256 149 257 150

C257 151 256 151 256 151

C255 151 254 151 254 150

Z

M259 149

C260 149 260 149 261 149

C261 150 260 150 259 150

C258 150 258 150 259 149

Z

M263 148

C263 148 265 148 265 148

C266 149 265 149 264 149

C263 149 262 149 263 148

Z

M274 147

C274 146 274 146 275 146

C276 146 276 146 276 147

C276 148 276 148 275 148

C274 148 274 148 274 147

Z

"/>

<path fill="#ffd0ae" stroke="none" d="
M112 187

C112 184 123 177 151 163

C158 159 166 155 170 153

C176 150 179 148 190 142

C191 141 193 140 194 140

C196 140 198 138 197 137

C197 136 185 137 178 139

C174 140 171 141 170 141

C168 141 160 143 115 157

C102 161 99 162 87 167

C74 171 71 172 71 171

C72 170 83 166 89 165

C91 164 97 162 101 160

C105 159 113 156 119 154

C125 152 132 150 134 149

C143 146 169 139 172 138

C174 138 178 137 182 136

C190 134 198 134 200 136

C202 138 196 142 191 144

C189 145 187 146 187 146

C186 146 182 148 179 151

C175 153 168 156 164 159

C159 161 153 164 151 165

C149 166 146 168 145 168

C143 169 140 170 138 172

C136 173 132 175 131 176

C130 177 127 178 125 179

C123 180 120 182 119 183

L116 186

L122 184

C128 181 132 180 161 172

C177 166 187 164 193 163

C195 163 200 161 204 160

C208 159 212 158 213 158

C214 158 219 157 223 156

C227 155 233 154 235 154

L240 153

L236 154

C234 155 231 156 229 156

C228 156 223 157 219 158

C216 159 211 160 209 161

C207 161 203 162 199 163

C195 164 191 165 189 165

C188 166 184 166 181 167

C175 169 168 171 166 172

C166 172 161 173 156 175

C151 177 146 178 146 178

C145 178 141 179 137 181

C133 183 128 184 126 184

C125 185 122 186 120 186

C115 188 112 188 112 187

Z

M64 174

C63 174 64 173 65 173

C66 172 67 173 67 173

C67 174 64 175 64 174

Z

M242 152

C245 151 248 151 246 152

C244 152 243 153 242 153

C240 153 240 153 242 152

Z

M254 150

C254 149 254 149 255 150

C256 150 256 150 256 151

C256 151 256 151 255 151

C254 151 254 151 254 150

Z

M259 149

C260 149 260 149 261 149

C261 150 260 150 259 150

C258 150 258 150 259 149

Z

M264 148

C265 148 265 148 266 148

C266 149 265 149 264 149

C263 149 263 149 264 148

Z

M274 147

C274 146 274 146 275 147

C276 147 276 147 276 148

C276 148 276 148 275 148

C274 148 274 148 274 147

Z

"/>

<path fill="#ffc398" stroke="none" d="
M112 187

C112 185 119 180 128 175

C130 174 134 172 137 170

C142 168 146 166 152 163

C155 161 172 152 178 149

C181 147 187 144 190 142

C194 140 197 138 197 138

C197 136 189 136 180 138

C175 140 171 141 170 141

C169 141 165 142 160 143

C156 145 151 146 149 146

C148 147 143 148 138 150

C113 158 108 159 107 159

C107 158 123 152 128 152

C129 151 134 150 139 148

C153 143 164 140 172 139

C175 138 181 136 184 136

C189 134 199 134 200 136

C201 137 201 138 198 140

C196 142 194 143 193 143

C193 143 191 144 189 145

C178 151 165 158 160 161

C156 163 152 165 150 166

C148 166 145 168 143 169

C141 170 140 171 139 171

C139 171 136 173 133 175

C130 176 128 178 127 178

C126 178 116 185 116 185

C116 186 118 185 121 184

C134 180 146 176 148 176

C149 175 154 174 159 172

C164 170 169 169 172 168

C174 168 179 167 182 165

C190 163 190 163 190 164

C190 165 179 168 174 169

C170 170 150 177 140 180

C135 182 130 183 128 183

C127 184 123 185 121 186

C116 188 112 189 112 187

Z

M71 171

C71 171 76 169 77 169

C77 170 76 170 74 171

C72 171 71 172 71 171

Z

M94 163

C100 160 107 158 105 159

C104 160 92 165 90 165

C90 165 92 164 94 163

Z

M192 164

C193 163 207 159 211 159

C213 158 218 157 221 157

C224 156 228 155 228 155

C229 155 225 157 219 158

C214 159 206 161 201 163

C191 165 190 165 192 164

Z

M235 154

C236 154 237 153 238 153

C239 153 239 153 238 154

C236 154 235 155 234 155

C233 155 233 155 235 154

Z

M259 149

C260 149 260 149 261 149

C261 150 260 150 259 150

C258 150 258 150 259 149

Z

M264 148

C265 148 265 148 266 148

C266 149 265 149 264 149

C263 149 263 149 264 148

Z

"/>

<path fill="#feba88" stroke="none" d="
M112 187

C112 186 117 181 125 177

C134 172 142 167 145 166

C149 164 171 153 178 149

C181 147 184 145 185 144

C187 144 188 143 189 143

C191 143 198 138 197 137

C196 135 189 136 182 138

C172 141 168 140 177 137

C185 135 198 134 200 136

C202 138 200 139 189 145

C178 150 166 157 159 161

C157 162 153 164 152 165

C149 165 138 171 134 174

C133 175 129 177 127 178

C125 179 121 181 119 183

L116 186

L120 185

C122 184 128 182 134 180

C139 178 149 175 156 173

C163 171 170 169 170 169

C171 170 166 171 160 173

C153 175 144 178 139 180

C135 182 131 183 129 183

C128 183 126 184 123 185

C118 187 112 189 112 187

Z

M172 169

C172 168 186 164 189 164

C190 164 190 164 188 165

C183 167 172 170 172 169

Z

M96 162

C100 160 105 158 104 160

C103 161 101 161 95 163

C93 164 94 163 96 162

Z

M200 161

C209 159 208 159 208 160

C208 161 196 164 193 164

C192 164 195 163 200 161

Z

M109 158

C109 158 113 156 117 155

C127 152 128 153 118 156

C115 157 111 158 110 159

C110 159 109 159 109 158

Z

M218 157

C224 156 227 156 221 158

C219 158 216 159 215 159

C213 159 215 158 218 157

Z

M227 155

C228 155 228 155 229 155

C229 156 228 156 227 156

C226 156 226 156 227 155

Z

M135 150

C140 148 146 146 148 146

C150 145 147 147 142 148

C128 153 123 154 135 150

Z

M152 145

C152 144 164 140 167 140

C169 140 169 140 166 142

C158 144 152 146 152 145

Z

"/>

<path fill="#ffab6f" stroke="none" d="
M112 187

C112 186 117 181 124 178

C127 176 131 174 133 173

C137 171 149 164 168 155

C173 152 179 148 182 147

C184 145 187 144 187 144

C189 144 198 138 198 137

C198 135 194 135 185 137

C181 138 175 139 173 140

C170 140 171 139 176 138

C190 133 205 134 200 138

C199 139 192 143 184 147

C176 151 168 156 165 157

C163 159 158 162 153 164

C148 166 143 168 142 169

C141 170 136 172 133 175

C125 178 113 187 117 186

C118 185 120 185 122 184

L125 184

L121 186

C117 188 112 188 112 187

Z

M129 182

C135 179 143 177 143 178

C143 179 137 181 131 182

C129 183 127 183 126 184

C125 184 126 183 129 182

Z

M145 177

C146 177 148 176 149 176

C151 175 151 175 150 176

C149 176 147 177 146 177

C144 178 144 178 145 177

Z

M153 175

C152 174 170 169 171 169

C171 169 167 171 162 173

C157 174 153 176 153 175

Z

M178 167

C181 166 184 165 186 165

C188 165 176 169 174 169

C172 169 174 168 178 167

Z

M195 163

C196 162 204 160 207 160

C208 160 207 161 206 161

C200 163 195 164 195 163

Z

M97 162

C98 161 100 160 102 160

C103 160 102 161 100 162

C95 163 94 163 97 162

Z

M217 158

C217 158 219 157 222 157

L226 156

L221 157

C216 159 215 159 217 158

Z

M112 157

C112 156 124 153 125 153

C125 153 122 155 118 156

C115 157 112 157 112 157

Z

M133 151

C134 150 144 146 144 147

C144 147 142 148 139 149

C135 151 132 151 133 151

Z

M146 146

C147 146 147 146 148 146

C148 147 147 147 146 147

C145 147 145 147 146 146

Z

M152 145

C152 144 164 140 165 141

C166 141 163 142 160 143

C154 145 152 145 152 145

Z

"/>

<path fill="#ff9950" stroke="none" d="
M114 187

C112 187 112 187 115 184

C116 182 118 181 119 181

C120 181 122 180 123 179

C126 176 130 175 130 175

C130 176 127 178 123 180

C115 185 114 186 118 185

C120 185 121 185 121 185

C121 186 116 188 114 187

Z

M125 184

C125 183 136 179 140 179

C143 178 143 178 142 179

C141 180 139 180 137 180

C136 181 133 182 130 182

C125 184 125 184 125 184

Z

M145 177

C146 176 147 176 148 176

C149 176 149 176 148 177

C145 178 143 178 145 177

Z

M157 173

C158 172 159 172 161 172

C162 172 162 172 161 173

C160 174 159 174 158 174

C156 174 156 174 157 173

Z

M134 173

C134 172 142 168 143 168

C144 168 136 173 135 173

C134 173 134 173 134 173

Z

M178 167

C179 167 180 166 182 166

L184 166

L182 167

C180 167 179 168 178 168

L176 168

L178 167

Z

M151 164

C152 162 156 161 164 156

C166 156 167 155 168 155

C168 156 159 161 158 161

C158 161 156 162 154 163

C150 165 147 166 151 164

Z

M199 162

C199 161 200 161 202 161

C204 161 204 161 203 162

C200 163 199 163 199 162

Z

M115 156

C116 156 117 155 118 155

C119 154 120 155 120 155

C119 155 118 156 117 156

C116 157 115 156 115 156

Z

M174 152

C174 151 176 150 178 149

C181 147 185 146 181 148

C179 150 174 152 174 152

Z

M138 149

C139 148 141 147 141 148

C142 148 139 150 137 150

C135 150 135 150 138 149

Z

M155 144

C159 141 162 141 162 142

C162 142 161 143 159 143

C157 144 155 144 154 145

C152 145 153 144 155 144

Z

M194 141

C198 138 199 137 198 136

C197 135 197 135 198 135

C202 136 201 138 196 141

C189 145 187 145 194 141

Z

M164 141

C165 141 165 141 166 141

C166 142 165 142 164 142

C163 142 163 142 164 141

Z

M172 139

C173 139 174 138 175 138

C176 138 176 138 175 139

C173 139 172 140 171 140

C170 140 170 140 172 139

Z

M178 138

C177 138 180 137 183 136

C192 135 194 135 188 136

C185 137 182 138 180 138

C179 139 178 139 178 138

Z

M194 134

C195 134 195 134 196 134

C196 135 195 135 194 135

C193 135 193 135 194 134

Z

"/>

</svg>

