<?xml version="1.0" standalone="no"?>

<!DOCTYPE svg PUBLIC "-//W3C//DTD SVG 20010904//EN"

 "http://www.w3.org/TR/2001/REC-SVG-20010904/DTD/svg10.dtd">

<svg version="1.0" xmlns="http://www.w3.org/2000/svg"

 width="300.000000pt" height="200.000000pt" viewBox="0 0 300.000000 200.000000"

 preserveAspectRatio="xMidYMid meet">

<path fill="#fefefe" stroke="none" d="
M0 100

L0 0

L150 0

L300 0

L300 100

L300 200

L150 200

L0 200

L0 100

Z

"/>

<path fill="#fce9e9" stroke="none" d="
M159 180

C159 179 160 179 161 179

C162 179 163 179 163 180

C163 181 162 181 161 181

C160 181 159 181 159 180

Z

M145 179

C145 178 147 178 149 178

C151 178 152 178 152 179

C151 180 150 180 148 180

C146 180 145 180 145 179

Z

M132 176

C130 174 129 173 130 173

C131 173 134 172 136 171

C139 169 144 167 149 166

C154 165 158 164 158 164

C158 164 165 162 173 161

C180 159 187 157 188 157

C189 156 197 155 205 154

C214 153 221 151 223 151

C224 150 226 150 228 150

C230 149 227 149 222 150

C217 150 195 150 174 151

C152 151 135 152 135 152

C135 152 124 153 111 153

C98 154 84 154 81 155

C76 155 74 155 74 154

C74 154 79 153 86 152

C92 152 98 151 98 151

C100 149 258 146 262 148

C266 150 264 151 253 151

C247 151 242 151 242 152

C242 152 238 153 234 153

C221 154 202 157 200 158

C198 158 190 160 182 161

C173 163 165 164 165 165

C164 165 161 166 157 167

C149 168 140 171 138 172

C138 173 137 173 136 173

C136 172 135 173 134 174

C133 175 135 176 138 176

C141 176 140 178 137 179

C135 179 134 178 132 176

Z

M43 158

C42 157 44 156 45 157

C46 157 45 159 44 159

C44 159 43 159 43 158

Z

M54 156

C54 155 55 155 57 155

C59 155 60 155 60 156

C60 157 59 157 57 157

C55 157 54 157 54 156

Z

M64 155

C64 154 66 154 68 154

C70 154 72 154 72 155

C72 156 70 156 68 156

C66 156 64 156 64 155

Z

"/>

<path fill="#f9d3d3" stroke="none" d="
M159 180

C159 179 160 179 161 179

C162 179 163 179 163 180

C163 181 162 181 161 181

C160 181 159 181 159 180

Z

M145 179

C145 178 147 178 149 178

C151 178 152 178 152 179

C151 180 150 180 148 180

C146 180 145 180 145 179

Z

M132 176

C129 174 130 173 134 172

C136 171 138 170 139 170

C139 169 145 167 151 166

C157 165 162 163 163 163

C163 163 169 161 175 160

C181 159 187 157 189 157

C191 156 207 153 221 152

C227 151 232 150 231 150

C231 149 217 149 201 150

C186 151 164 151 154 151

C144 151 135 151 134 152

C133 153 85 154 85 153

C85 152 100 151 111 151

C115 151 118 151 118 150

C119 148 257 146 261 148

C262 148 263 149 263 150

C263 151 261 151 253 151

C247 151 242 151 242 152

C241 152 238 153 233 153

C221 154 195 158 193 159

C191 160 186 161 181 161

C169 163 162 165 160 166

C158 166 154 168 150 169

C146 169 141 171 140 172

C138 172 136 173 136 173

C136 172 135 173 134 174

C133 175 133 175 136 176

C140 177 141 178 137 178

C135 178 133 177 132 176

Z

M43 157

C44 156 44 156 45 157

C46 158 46 158 44 158

C42 158 42 158 43 157

Z

M55 156

C55 155 56 155 57 155

C58 155 59 155 60 156

C60 157 59 157 57 157

C55 157 54 157 55 156

Z

M64 155

C64 154 66 154 68 154

C69 154 71 154 71 155

C71 156 69 156 68 156

C66 156 64 156 64 155

Z

M74 154

C74 153 76 153 79 153

C82 153 84 153 84 154

C84 155 82 155 79 155

C76 155 74 155 74 154

Z

"/>

<path fill="#f5b1b1" stroke="none" d="
M160 180

C159 179 160 179 161 179

C162 179 163 179 163 180

C163 181 162 181 162 181

C161 181 160 181 160 180

Z

M146 178

C147 178 149 178 150 178

C151 179 150 179 148 179

C146 179 145 179 146 178

Z

M131 176

C130 174 130 174 131 173

C133 171 135 172 134 173

C133 175 134 177 138 177

C140 178 140 178 137 178

C134 178 133 177 131 176

Z

M139 170

C141 169 147 167 154 165

C160 164 166 163 167 162

C168 161 174 160 181 159

C187 158 193 157 195 156

C197 155 224 151 229 151

C231 151 232 151 231 150

C231 149 220 149 200 150

C183 150 154 151 135 152

C116 152 100 153 99 153

C99 154 86 154 86 153

C85 152 98 151 125 150

C136 150 146 149 147 149

C148 148 256 146 260 147

C262 148 263 149 263 149

C263 150 259 151 248 151

C239 152 232 152 232 153

C231 154 229 154 228 154

C223 154 189 159 187 160

C185 161 182 161 178 162

C167 164 156 166 154 167

C152 168 146 169 138 172

C136 172 137 171 139 170

Z

M55 156

C55 155 56 155 57 155

C58 155 59 155 59 156

C59 157 58 157 56 157

C55 157 54 157 55 156

Z

M64 155

C64 154 66 154 68 154

C69 154 71 154 71 155

C71 156 69 156 68 156

C66 156 64 156 64 155

Z

M75 154

C75 153 77 153 80 153

C82 153 84 153 84 154

C84 155 82 155 80 155

C77 155 75 155 75 154

Z

"/>

<path fill="#f19090" stroke="none" d="
M161 179

C162 179 162 179 163 179

C163 180 162 180 161 180

C160 180 160 180 161 179

Z

M146 178

C147 178 149 178 150 178

C151 179 150 179 148 179

C146 179 145 179 146 178

Z

M132 176

C130 174 130 174 131 173

C132 172 133 172 134 172

C135 172 135 172 134 173

C131 173 132 176 136 177

C139 178 139 178 137 178

C135 178 133 177 132 176

Z

M139 170

C145 167 146 167 159 164

C165 163 171 162 172 161

C173 160 180 159 187 158

C194 157 200 155 201 155

C201 155 208 153 217 152

C225 151 232 150 231 150

C231 149 225 149 218 149

C211 150 185 150 159 151

C133 152 106 152 99 152

C86 153 86 153 94 152

C106 151 153 149 171 149

C180 149 186 149 187 148

C188 146 259 147 261 148

C262 149 263 150 263 150

C263 151 259 151 255 151

C245 151 224 153 222 154

C220 154 215 155 211 156

C196 158 183 160 181 161

C179 161 172 163 165 165

C157 166 149 168 148 168

C142 171 134 173 139 170

Z

M56 156

C56 156 58 156 58 156

C59 157 58 157 57 157

C56 157 55 157 56 156

Z

M65 155

C65 154 66 154 68 154

C70 154 71 154 71 155

C71 156 69 156 67 156

C65 156 64 156 65 155

Z

M75 154

C75 153 77 153 80 153

C82 153 84 153 84 154

C83 155 81 155 79 155

C77 155 75 155 75 154

Z

"/>

<path fill="#ed6c6c" stroke="none" d="
M147 178

C148 178 150 178 150 178

C151 179 150 179 149 179

C147 179 146 179 147 178

Z

M133 177

C133 176 134 176 136 177

C139 178 140 178 137 178

C135 178 134 178 133 177

Z

M139 171

C143 168 146 168 146 169

C145 169 144 170 142 170

C141 171 139 171 138 171

C136 172 137 171 139 171

Z

M150 166

C150 166 152 166 152 166

C153 167 152 167 151 167

C150 167 149 167 150 166

Z

M155 165

C157 164 174 161 175 161

C175 162 174 163 165 164

C157 166 152 166 155 165

Z

M178 160

C178 160 185 158 192 157

C199 156 206 155 207 154

C208 154 214 153 221 152

C230 151 233 150 232 149

C231 148 234 148 245 148

C259 148 263 148 263 150

C263 150 257 151 249 151

C233 152 210 155 207 156

C205 156 200 158 194 158

C187 159 181 160 180 161

C177 161 177 161 178 160

Z

M56 156

C56 156 58 156 58 156

C59 157 58 157 57 157

C56 157 55 157 56 156

Z

M77 153

C78 153 80 153 81 153

C82 154 81 154 79 154

C77 154 76 154 77 153

Z

M94 152

C113 150 220 147 219 149

C218 149 197 150 163 151

C132 152 103 152 97 152

C86 153 86 153 94 152

Z

"/>

<path fill="#e94c4c" stroke="none" d="
M147 178

C148 178 150 178 150 178

C151 179 150 179 149 179

C147 179 146 179 147 178

Z

M134 177

C133 177 134 177 136 177

C138 177 139 177 139 178

C139 178 134 178 134 177

Z

M139 171

C139 170 140 170 141 170

C141 169 142 169 141 170

C141 171 139 171 139 171

Z

M156 165

C165 163 169 162 168 163

C167 164 158 166 155 166

C154 166 154 166 156 165

Z

M178 160

C179 160 179 160 180 160

C180 161 179 161 178 161

C177 161 177 161 178 160

Z

M183 159

C183 159 185 158 187 158

C190 157 193 157 196 156

C199 156 200 156 200 157

C199 157 196 158 193 158

C190 159 187 159 185 160

C184 160 183 160 183 159

Z

M202 155

C203 155 205 155 206 155

C207 156 206 156 204 156

C202 156 201 156 202 155

Z

M209 154

C210 154 212 154 212 154

C213 155 212 155 211 155

C209 155 208 155 209 154

Z

M217 153

C218 153 220 153 221 153

C222 154 221 154 219 154

C216 154 216 154 217 153

Z

M99 152

C100 151 154 149 171 149

C179 149 183 149 183 150

C182 151 174 151 161 151

C149 151 130 152 119 152

C107 152 98 152 99 152

Z

M223 152

C223 151 225 151 228 151

C233 151 233 151 232 150

C231 148 232 148 245 148

C258 148 263 149 263 150

C263 150 256 151 248 151

C240 152 231 152 228 153

C225 153 223 153 223 152

Z

M195 148

C199 148 207 148 211 148

C215 148 211 149 203 149

C194 149 190 148 195 148

Z

"/>

<path fill="#e73a3a" stroke="none" d="
M135 177

C136 177 138 177 138 177

C139 178 138 178 137 178

C135 178 134 178 135 177

Z

M159 165

C159 164 164 163 164 164

C164 164 163 165 161 165

C159 165 158 165 159 165

Z

M184 159

C185 159 185 159 186 159

C186 160 185 160 184 160

C183 160 183 160 184 159

Z

M189 158

C189 157 190 157 191 157

C192 157 193 157 193 158

C192 159 191 159 190 159

C190 159 189 159 189 158

Z

M196 156

C196 156 198 156 198 156

C199 157 198 157 197 157

C196 157 195 157 196 156

Z

M202 155

C203 155 205 155 205 155

C206 156 205 156 204 156

C202 156 201 156 202 155

Z

M209 154

C210 154 212 154 212 154

C213 155 212 155 211 155

C209 155 208 155 209 154

Z

M216 153

C217 153 219 153 220 153

C221 154 220 154 218 154

C216 154 215 154 216 153

Z

M99 152

C100 151 136 150 134 151

C134 151 126 152 116 152

C106 152 98 152 99 152

Z

M223 152

C224 151 226 151 229 151

C232 151 233 151 233 150

C232 148 234 148 246 148

C253 148 260 149 262 149

C263 150 260 150 253 150

C247 150 242 150 241 151

C240 152 223 153 223 152

Z

M156 149

C161 149 169 149 174 149

C179 149 175 150 165 150

C155 150 151 149 156 149

Z

M195 148

C199 148 207 148 211 148

C215 148 211 149 203 149

C194 149 190 148 195 148

Z

"/>

</svg>

