<?xml version="1.0" standalone="no"?>

<!DOCTYPE svg PUBLIC "-//W3C//DTD SVG 20010904//EN"

 "http://www.w3.org/TR/2001/REC-SVG-20010904/DTD/svg10.dtd">

<svg version="1.0" xmlns="http://www.w3.org/2000/svg"

 width="500.000000pt" height="200.000000pt" viewBox="0 0 500.000000 200.000000"

 preserveAspectRatio="xMidYMid meet">

<path fill="#fefefe" stroke="none" d="
M0 100

L0 0

L250 0

L500 0

L500 100

L500 200

L250 200

L0 200

L0 100

Z

"/>

<path fill="#9ed0e0" stroke="none" d="
M146 194

C143 190 142 188 140 179

C139 172 139 169 140 159

C141 153 142 145 143 141

C146 129 155 108 161 97

C166 88 175 75 176 76

C176 76 174 80 172 84

C167 93 169 94 174 86

C177 81 188 70 190 70

C191 70 189 72 187 75

C185 77 183 80 183 81

C182 81 186 80 191 77

C202 70 213 65 221 64

C225 63 232 61 237 59

C241 57 246 56 247 56

C248 57 250 56 251 56

C252 55 255 54 258 53

C263 50 267 49 280 45

C281 44 281 44 280 45

C278 47 278 47 280 49

C284 53 284 58 280 58

C279 58 278 59 278 60

C278 61 277 61 274 61

C270 60 263 63 258 67

C255 70 256 70 266 66

C270 65 276 63 280 62

C283 61 286 60 287 59

C290 58 294 58 294 59

C293 60 292 61 288 63

C286 64 286 64 288 63

C290 63 291 63 291 64

C290 65 291 65 292 64

C293 64 293 64 292 65

C289 67 289 67 298 64

C323 56 342 44 347 33

L349 29

L348 33

C348 37 348 37 349 36

C351 34 351 34 350 37

C350 39 349 41 349 42

C348 44 348 44 351 43

C353 42 352 44 346 49

L339 56

L344 54

C350 51 351 50 349 53

C348 54 348 54 350 54

C353 54 358 48 359 42

C360 39 361 37 361 38

C362 38 363 36 363 33

C363 32 363 32 362 33

C361 34 361 34 361 33

C360 30 360 30 361 31

C365 33 356 20 347 11

C342 6 342 5 348 10

C352 13 360 23 362 28

C363 29 364 32 364 33

C364 35 365 38 366 40

L369 44

L369 41

C370 38 369 33 367 29

C366 28 362 23 358 17

C353 12 350 8 351 8

C352 8 369 26 370 30

C371 33 372 45 371 45

C370 45 370 46 369 47

C369 48 366 52 362 55

L355 62

L362 59

C369 55 372 53 370 51

C370 50 370 50 371 50

C373 51 374 47 374 40

C374 35 374 35 375 37

C377 41 376 49 372 53

C370 57 367 59 358 63

C343 70 329 77 313 83

C306 86 299 89 297 90

C292 92 247 107 224 115

C211 119 190 128 191 129

C191 129 194 128 196 127

C199 127 205 125 210 123

C214 122 222 120 225 118

C232 115 233 114 233 116

C232 118 234 117 246 114

C252 112 257 110 256 110

C255 110 256 109 258 108

C261 108 262 108 261 108

C260 110 263 109 282 103

C291 100 299 97 301 95

C304 93 307 92 307 93

C306 95 319 90 339 81

C353 75 363 71 364 71

C368 71 341 85 328 90

C325 91 323 93 323 93

C324 93 327 92 330 91

C338 88 349 85 350 85

C351 87 327 97 305 104

C291 109 280 113 280 113

C280 114 282 114 285 114

C288 114 291 114 291 115

C292 116 313 112 313 110

C313 109 314 109 315 109

C316 110 316 110 316 109

C315 109 321 106 327 103

C334 100 343 96 347 93

C351 91 354 89 355 90

C356 90 356 90 356 89

C356 88 358 86 362 84

L369 81

L365 84

C354 96 326 110 296 118

C282 122 258 127 248 128

C241 129 220 136 216 139

C215 139 213 140 212 140

C210 140 194 148 192 150

C191 150 189 151 187 152

C184 153 173 160 164 167

C162 169 161 170 161 169

C161 168 161 168 160 169

C159 170 159 172 159 173

C159 175 158 176 158 177

C157 178 156 179 156 180

C156 180 155 181 154 181

C152 181 152 181 152 179

C153 178 153 178 151 179

C149 179 149 179 149 176

C149 174 149 173 148 173

C147 173 147 174 147 175

C148 176 148 176 146 174

L144 173

L144 178

C146 188 147 193 148 195

C150 197 149 196 146 194

Z

M161 161

L164 158

L161 160

C159 161 158 162 158 163

C157 165 158 164 161 161

Z

M171 160

L175 157

L171 159

C169 161 167 162 167 163

C167 165 167 164 171 160

Z

M158 157

C159 156 159 155 159 154

C157 153 155 155 153 159

L152 162

L155 160

C156 159 158 158 158 157

Z

M190 146

C189 146 188 146 188 147

C187 148 187 148 188 147

C189 147 190 147 190 146

Z

M224 133

C225 133 224 132 223 133

C221 133 220 134 222 134

C223 134 224 134 224 133

Z

M231 130

C232 129 232 129 231 129

C230 129 229 129 229 130

C228 131 229 131 231 130

Z

M189 127

C190 126 191 125 192 124

C193 122 193 122 192 123

C189 124 184 129 186 129

C186 129 187 128 189 127

Z

M289 116

C289 116 288 115 287 116

C285 116 284 116 284 117

C284 117 285 117 287 117

C288 117 289 117 289 116

Z

M266 114

C266 113 265 113 265 114

C264 114 263 114 263 115

C263 115 264 115 265 115

C265 115 266 115 266 114

Z

M322 108

C323 107 323 107 323 107

C322 107 321 107 320 108

C319 109 319 109 320 109

C320 109 321 109 322 108

Z

M184 96

C184 95 184 95 183 95

C183 95 182 95 182 96

C181 97 181 97 182 97

C182 97 183 97 184 96

Z

M351 92

C351 92 350 93 348 94

C346 94 345 95 345 96

C345 96 346 95 348 95

C350 94 351 93 351 92

Z

M190 91

C191 89 191 89 190 90

C188 91 185 93 185 94

C185 95 189 93 190 91

Z

M195 88

C194 88 194 88 193 88

C192 89 192 89 193 89

C194 89 195 89 195 88

Z

M250 69

C253 67 256 65 257 65

C257 64 256 64 254 65

C253 66 249 68 246 69

C243 71 241 72 242 72

C243 72 246 71 250 69

Z

M336 64

C337 64 338 63 337 63

C337 62 335 63 334 64

C331 65 333 65 336 64

Z

M347 56

C347 56 346 56 345 57

C344 58 343 58 343 59

C343 59 344 59 345 58

C346 57 347 57 347 56

Z

M365 49

C366 47 366 43 365 40

L365 38

L363 40

C363 41 362 44 362 46

C362 48 361 50 361 51

C360 52 360 52 362 51

C363 50 364 50 365 49

Z

M209 143

C210 143 212 142 212 143

C213 143 213 144 211 144

C208 145 206 145 209 143

Z

M219 139

C219 138 220 138 221 138

C222 138 222 138 221 139

C219 140 218 140 219 139

Z

M242 113

C243 111 250 109 251 109

C252 110 252 110 251 110

C249 111 247 112 245 113

C243 114 242 114 242 113

Z

M226 57

C227 56 239 51 254 47

C268 43 271 41 265 42

C262 43 262 43 266 41

C270 39 282 35 283 35

C284 35 274 40 273 40

C272 40 271 40 271 41

C270 42 278 40 290 36

C298 33 313 29 314 29

C314 30 311 31 307 33

C292 40 221 61 226 57

Z

M299 51

C299 51 308 47 309 47

C309 47 309 48 307 48

C305 50 299 52 299 51

Z

M339 38

C341 35 343 32 344 31

C344 27 346 26 346 29

C346 33 343 38 340 40

C334 43 334 42 339 38

Z

M323 40

C324 39 328 38 330 36

C335 34 335 34 334 36

C333 39 328 41 324 41

C321 41 321 41 323 40

Z

M325 36

C327 34 332 32 332 33

C332 35 329 37 326 37

C324 37 324 37 325 36

Z

M335 31

C336 29 336 29 333 31

C327 33 326 32 331 29

C336 27 336 27 336 23

C336 20 335 19 330 15

C327 12 325 9 325 9

C326 9 337 17 337 18

C337 18 338 20 339 21

C342 24 339 33 334 33

C333 33 333 33 335 31

Z

M356 29

C355 27 352 24 351 23

C346 20 346 18 350 21

C353 22 354 22 351 19

C350 17 350 17 351 17

C352 18 354 20 356 23

C360 27 360 28 359 31

L358 33

L356 29

Z

M328 27

C328 26 329 26 330 26

C330 26 331 26 331 25

C331 24 332 24 332 24

C333 24 332 25 331 26

C329 28 326 29 328 27

Z

M329 19

C329 18 327 16 325 15

C322 13 315 5 316 5

C317 5 331 19 331 19

C331 20 331 20 330 20

C329 20 329 19 329 19

Z

"/>

<path fill="#53abc9" stroke="none" d="
M144 189

C139 179 139 161 143 144

C147 127 158 101 168 87

C174 77 175 77 170 87

C168 91 166 95 166 95

C167 95 169 93 171 90

C179 81 186 73 187 73

C187 74 186 76 184 79

C181 81 180 83 180 83

C180 84 183 82 186 80

C200 72 217 64 224 64

C226 64 227 63 228 62

C229 61 230 61 233 61

C236 62 253 57 257 54

C261 52 277 46 277 47

C277 47 278 48 279 48

C280 49 281 50 280 51

C280 51 280 52 281 52

C282 52 283 53 282 54

C282 55 282 56 282 56

C282 56 281 57 280 57

C279 58 278 59 278 59

C278 61 274 62 273 60

C272 59 264 62 259 66

C253 70 254 71 261 68

C263 67 265 67 266 66

C266 66 270 65 274 64

C278 63 282 62 283 62

C284 62 286 61 287 61

C288 60 290 59 291 58

C296 57 294 60 289 62

C285 64 285 64 287 64

L290 64

L287 66

C285 67 285 67 287 66

C288 66 289 66 289 67

C288 69 289 68 298 65

C310 61 328 52 336 47

C339 44 343 40 345 37

C347 35 348 33 348 34

C348 36 346 40 342 44

C340 46 339 48 340 47

C341 47 344 44 346 41

C350 35 351 35 349 41

C347 45 347 45 349 44

C350 44 348 47 344 50

C338 56 337 57 343 54

C345 54 346 53 347 53

C347 54 344 57 341 59

C340 60 340 60 341 61

C341 62 342 61 344 60

C345 59 349 56 351 54

C356 51 360 45 360 41

C360 39 360 39 361 40

C362 42 361 48 360 51

C359 54 360 54 363 51

C364 50 366 48 366 45

C367 42 367 42 367 44

C367 46 367 47 368 47

C370 45 369 48 367 50

C366 51 362 54 359 57

C355 60 352 63 352 63

C353 63 366 57 370 55

L373 53

L370 55

C367 59 335 74 308 85

C301 87 295 90 294 91

C292 92 277 97 263 101

C262 101 263 100 264 100

C267 98 265 98 261 100

C259 100 257 101 257 102

C258 102 248 106 236 110

C209 119 190 127 191 129

C192 130 217 122 225 118

C231 116 232 115 231 117

C230 119 231 119 239 116

C276 107 316 93 342 81

C345 79 352 76 356 75

C361 73 362 72 360 74

C357 77 340 85 327 90

C319 93 316 95 318 95

C319 95 323 94 328 93

C338 89 345 87 346 87

C347 88 319 99 290 109

C278 112 278 112 280 114

C282 115 282 116 281 116

C280 116 280 116 281 117

C283 118 284 118 286 118

C288 117 308 112 316 111

C317 110 316 111 314 112

C301 117 267 125 248 128

C243 128 237 130 234 131

C225 134 224 134 230 131

C237 127 233 127 223 132

C213 136 211 137 211 138

C212 138 213 137 215 137

C217 136 219 135 220 135

C221 135 217 137 211 139

C206 142 200 145 199 145

C197 146 195 147 193 148

C191 148 188 149 188 150

C187 151 186 152 185 152

C185 152 181 154 178 157

C174 160 171 162 170 162

C170 161 179 154 186 150

C188 148 190 146 189 146

C189 146 184 149 178 153

C171 158 167 161 166 164

C165 166 163 168 162 169

C161 170 161 170 161 169

C162 168 162 168 161 168

C160 168 159 170 159 172

C159 175 155 180 153 180

C153 180 152 179 153 179

C153 178 153 177 151 178

C149 178 149 178 149 176

C149 174 149 173 148 173

C147 172 147 173 147 174

C147 174 147 175 146 174

C145 174 145 173 145 172

C146 172 146 171 145 172

C144 172 144 179 145 186

C146 192 146 194 144 189

Z

M152 165

C152 164 154 162 156 160

C158 157 160 155 160 155

C160 153 156 154 155 156

C153 158 150 166 151 166

C152 166 152 165 152 165

Z

M161 162

C164 159 166 158 164 161

C163 162 164 161 167 159

C169 157 172 154 175 152

C177 150 179 149 179 148

C178 148 175 150 172 153

C168 155 165 157 164 157

C162 157 157 162 157 163

C157 165 159 164 161 162

Z

M170 149

C169 149 168 149 168 150

C166 152 167 154 169 152

C170 151 170 150 170 149

Z

M172 142

C172 141 172 141 171 142

C170 142 170 143 170 143

C170 144 170 144 171 144

C172 143 172 142 172 142

Z

M207 135

C209 134 210 133 210 133

C210 132 204 135 203 136

C203 137 203 137 207 135

Z

M191 126

C194 122 194 122 192 123

C189 123 185 127 185 129

C185 131 186 130 191 126

Z

M250 119

C254 117 252 117 248 118

C244 119 241 122 245 120

C246 120 249 119 250 119

Z

M266 115

C267 115 267 115 267 114

C266 113 260 114 259 116

C258 117 263 116 266 115

Z

M308 100

C310 99 312 98 312 98

C312 97 310 97 310 98

C309 98 307 99 305 100

C302 101 300 102 299 102

C299 103 301 103 308 100

Z

M181 99

C183 97 184 96 184 95

C183 94 182 95 181 96

C176 101 176 103 181 99

Z

M189 91

C190 90 192 89 192 89

C194 89 202 85 202 84

C200 83 185 92 185 94

C185 96 188 94 189 91

Z

M328 71

C332 70 335 68 335 67

C336 66 318 72 317 74

C317 74 317 74 318 74

C319 73 324 72 328 71

Z

M252 68

C256 66 259 64 259 64

C259 63 257 64 247 68

C242 71 240 72 242 72

C243 72 248 70 252 68

Z

M334 65

C336 64 338 63 338 63

C338 62 336 62 331 64

C329 65 328 66 330 66

C330 66 332 66 334 65

Z

M275 56

C277 55 279 54 279 54

C279 53 272 56 271 57

C270 58 270 58 271 58

C271 58 273 57 275 56

Z

M209 144

C209 143 210 143 211 143

C211 142 212 142 211 143

C211 144 209 144 209 144

Z

M247 110

C248 110 248 110 249 110

C249 111 248 111 247 111

C246 111 246 111 247 110

Z

M256 109

C256 109 258 109 258 109

C259 110 258 110 257 110

C256 110 255 110 256 109

Z

M325 106

C325 105 326 105 327 104

C328 103 329 103 329 103

C329 104 328 104 327 105

C326 106 325 106 325 106

Z

M329 106

C329 105 348 95 349 95

C349 96 345 98 339 101

C334 104 329 106 329 106

Z

M302 94

C305 93 306 93 306 94

C305 94 304 95 303 95

C301 96 301 96 302 94

Z

M358 88

C360 87 361 85 362 85

C364 84 364 84 363 86

C361 87 360 89 359 89

C357 90 357 90 358 88

Z

M230 56

C230 56 235 54 241 52

C270 42 276 41 277 41

C278 40 280 40 283 39

C287 37 302 32 307 31

C309 31 309 31 308 32

C305 34 291 39 266 47

C241 54 229 57 230 56

Z

M373 48

C374 46 374 44 375 44

C375 45 374 51 373 51

C373 52 373 50 373 48

Z

M302 50

C303 49 304 49 305 49

C305 49 305 49 304 50

C303 51 302 51 302 51

C301 51 301 51 302 50

Z

M370 40

C370 38 370 37 371 38

C371 39 371 41 371 41

C370 42 370 41 370 40

Z

M339 38

C341 37 343 34 344 33

C345 30 345 30 345 32

C345 34 342 38 339 40

L336 41

L339 38

Z

M326 40

C326 39 328 38 331 37

L335 35

L332 37

C330 39 328 40 327 40

C326 40 326 40 326 40

Z

M363 36

C363 35 363 35 364 36

C364 37 364 37 364 38

C363 38 363 37 363 36

Z

M325 36

C325 36 327 35 328 34

C331 33 332 33 331 34

C331 34 330 35 328 36

C325 37 325 37 325 36

Z

M369 32

C368 29 366 26 364 24

C361 20 361 19 365 23

C368 27 371 33 371 34

C370 35 370 34 369 32

Z

M336 30

C338 28 339 26 338 26

C338 26 338 26 337 27

C337 27 336 29 334 30

C330 32 329 31 333 29

C338 26 338 20 333 16

C331 15 331 14 332 14

C332 14 334 16 336 18

C342 25 341 29 335 33

C334 33 335 32 336 30

Z

M354 25

C351 23 350 21 352 22

C353 22 354 24 355 24

C356 25 357 26 357 26

C357 25 358 26 358 28

C358 29 358 30 358 30

C358 30 356 28 354 25

Z

M358 24

C357 22 356 20 356 20

C357 20 358 21 358 23

C360 25 360 26 358 24

Z

M351 15

C350 13 350 13 352 14

C353 15 353 16 353 16

C353 17 352 16 351 15

Z

M357 15

C356 14 355 13 356 13

C357 13 359 16 359 17

C359 17 358 16 357 15

Z

"/>

</svg>

