<?xml version="1.0" standalone="no"?>

<!DOCTYPE svg PUBLIC "-//W3C//DTD SVG 20010904//EN"

 "http://www.w3.org/TR/2001/REC-SVG-20010904/DTD/svg10.dtd">

<svg version="1.0" xmlns="http://www.w3.org/2000/svg"

 width="500.000000pt" height="200.000000pt" viewBox="0 0 500.000000 200.000000"

 preserveAspectRatio="xMidYMid meet">

<path fill="#fefdfd" stroke="none" d="
M0 100

L0 0

L250 0

L500 0

L500 100

L500 200

L250 200

L0 200

L0 100

Z

"/>

<path fill="#ea5858" stroke="none" d="
M57 196

C48 193 37 187 34 183

C30 178 29 175 29 167

C30 159 32 155 38 152

C40 151 47 148 52 146

C57 143 64 140 69 139

C78 137 81 136 77 139

C74 140 73 143 75 142

C79 140 111 140 127 141

C143 142 151 142 182 140

C188 139 188 139 185 141

C182 142 184 142 203 141

C214 141 224 141 225 141

C226 141 229 141 233 141

L239 141

L235 142

C231 144 231 144 233 144

C234 144 242 144 249 144

C262 143 277 144 281 146

C283 147 280 147 272 147

C250 147 264 149 295 150

C319 150 323 151 320 152

L316 153

L319 153

C320 153 324 153 328 153

C332 153 333 152 332 152

C331 152 330 152 330 151

C330 150 343 150 350 151

C353 151 347 153 341 153

C336 153 336 153 346 154

C361 155 365 156 374 155

C379 154 381 154 381 155

C380 155 382 156 387 155

C392 155 393 155 392 156

C392 157 393 157 401 157

C416 156 436 155 434 156

C430 157 432 157 438 157

C442 157 444 156 443 156

C442 156 441 156 441 155

C441 154 451 151 455 151

C458 151 458 151 456 152

C455 154 455 154 458 154

C459 154 466 153 473 152

C479 151 486 150 487 150

L490 150

L487 151

C486 151 482 152 480 153

L475 155

L480 155

C482 156 487 156 490 156

C494 156 494 156 492 157

C491 158 487 158 483 159

C480 160 474 161 471 162

L466 164

L473 164

L480 165

L470 167

C464 168 458 169 456 169

C454 169 453 169 455 170

C459 171 460 171 458 172

C457 173 457 173 459 173

C461 173 462 173 462 174

C462 176 445 177 403 178

C378 179 355 179 351 180

L345 181

L349 181

C351 182 360 182 368 182

C379 182 381 183 379 183

C376 184 353 184 327 184

C279 185 249 186 248 188

C247 189 242 189 233 189

C224 189 220 189 221 190

C224 192 220 192 211 192

C194 190 178 190 180 191

C180 191 181 192 183 192

C184 193 177 193 168 193

C158 193 140 193 128 194

C103 195 69 195 63 193

C58 192 58 192 63 195

C67 197 67 197 65 197

C63 197 59 196 57 196

Z

M87 187

C86 186 87 186 91 187

C95 187 96 187 94 186

C90 185 69 184 72 185

C73 185 76 186 80 186

L86 186

L81 187

L76 188

L82 188

C86 188 88 188 87 187

Z

M227 183

C227 183 225 183 225 183

C224 184 225 184 226 184

C227 184 228 184 227 183

Z

M209 181

C208 181 206 181 205 181

C204 182 205 182 207 182

C209 182 210 182 209 181

Z

M214 181

C213 181 213 181 212 181

C211 182 211 182 212 182

C213 182 214 182 214 181

Z

M366 174

C366 174 362 174 357 174

C350 174 349 174 354 175

C358 176 365 175 366 174

Z

M381 164

C381 164 379 164 378 164

C377 165 378 165 380 165

C381 165 382 165 381 164

Z

M377 162

C377 162 375 162 374 162

C373 163 374 163 376 163

C377 163 378 163 377 162

Z

M394 162

C394 161 386 161 384 162

C382 163 383 163 388 163

C391 163 394 163 394 162

Z

M419 162

C416 161 411 161 407 161

L400 161

L408 162

C412 162 417 163 419 163

L423 163

L419 162

Z

M293 154

C293 154 288 154 283 154

C273 154 269 154 278 155

C281 156 292 155 293 154

Z

M298 153

C297 153 297 153 296 153

C295 154 295 154 296 154

C297 154 298 154 298 153

Z

M466 171

C466 170 471 169 473 170

C473 171 474 171 474 170

C475 170 475 170 475 171

C474 172 467 172 466 171

Z

M377 152

C372 151 372 151 375 150

C379 149 405 150 411 151

C416 153 416 153 400 153

C390 153 380 152 377 152

Z

M279 142

C279 142 272 142 264 142

C255 142 250 141 251 141

C251 140 279 141 284 142

L287 143

L283 143

C281 143 279 143 279 142

Z

M135 139

C136 139 138 139 139 139

C140 140 139 140 137 140

C134 140 134 140 135 139

Z

M204 139

C205 138 209 138 214 138

C219 137 221 137 220 138

C217 140 202 140 204 139

Z

M94 136

C98 135 120 135 122 136

C122 136 116 137 107 137

C98 137 92 136 94 136

Z

"/>

<path fill="#e73a3a" stroke="none" d="
M51 193

C40 189 34 185 32 179

C29 175 30 165 32 159

C34 155 35 155 45 150

C59 143 63 141 70 140

C75 138 76 138 73 140

C72 142 174 142 180 141

C182 140 182 140 180 141

C179 141 178 142 178 143

C178 143 203 143 227 142

L237 141

L229 143

C221 145 218 147 225 146

C231 145 274 144 275 145

C275 146 271 146 265 146

C258 146 256 146 257 147

C258 148 285 151 301 151

L313 151

L305 152

C301 153 290 153 282 153

C273 153 266 153 265 153

C265 154 266 154 268 155

C273 156 288 156 298 155

C306 153 312 153 328 154

C339 155 352 155 356 156

C360 156 366 156 369 156

C375 155 379 155 377 156

C376 156 386 157 402 157

C428 157 428 157 423 158

C418 160 412 160 391 160

C377 161 366 161 365 161

C365 162 364 163 364 164

C364 166 364 166 379 165

C390 165 395 165 395 166

C396 167 395 167 394 167

C392 167 391 167 392 168

C392 169 391 169 389 169

C387 169 385 169 385 170

C385 171 387 171 389 170

C392 170 400 169 407 169

C417 168 419 167 414 167

C411 167 408 167 408 166

C408 165 407 165 406 165

C405 165 404 165 404 164

C405 164 410 164 415 163

C431 163 443 162 440 161

C439 160 439 160 441 160

C443 160 445 160 446 161

C447 162 451 162 456 161

C468 159 478 159 475 160

C474 160 471 161 469 161

C464 161 457 163 457 165

C457 165 458 166 459 166

C460 166 461 166 461 167

C462 168 451 169 441 169

C435 169 433 169 433 170

C433 171 431 171 428 171

C425 170 421 171 420 171

C419 171 426 172 437 172

C448 173 457 173 457 174

C458 175 457 175 454 175

C452 175 449 175 448 176

C447 176 432 176 415 176

C398 177 378 177 370 178

C362 178 356 178 356 177

C356 177 357 176 359 176

C360 176 365 176 370 175

C375 175 379 174 380 175

C380 175 381 175 381 174

C381 173 366 172 352 173

C345 173 343 173 344 174

C345 175 343 175 339 174

C335 174 332 174 332 175

C332 176 346 177 351 176

C354 176 355 176 355 177

C355 179 354 179 348 179

C340 179 339 180 345 182

C352 183 345 183 319 183

C292 183 245 186 244 187

C243 188 239 188 234 188

C223 188 215 189 219 190

C221 191 216 191 203 190

C195 190 193 189 195 189

C197 188 196 188 193 189

C191 189 186 189 181 190

C177 190 174 191 175 191

C176 192 159 193 125 193

C109 194 108 194 120 193

C132 192 137 191 129 191

C104 190 88 191 88 193

C88 193 92 193 97 193

C105 193 106 193 104 194

C102 195 77 194 61 193

C59 193 59 193 59 194

C59 195 59 195 51 193

Z

M110 189

C117 189 117 188 110 187

C107 187 103 187 101 186

C94 184 54 183 54 184

C54 184 57 185 60 186

C63 186 66 187 67 187

C75 188 85 189 92 189

C96 189 100 189 101 189

C101 190 102 190 103 190

C104 189 107 189 110 189

Z

M209 187

C209 186 207 186 203 187

C200 188 200 188 204 188

C207 188 209 188 209 187

Z

M237 184

C240 184 242 184 242 183

C241 182 258 181 261 181

C262 182 268 181 274 181

C283 179 283 179 260 180

C246 180 230 180 224 180

C207 180 190 181 193 182

C194 183 199 183 205 183

C211 183 215 183 215 184

C215 185 218 185 224 185

C229 184 235 184 237 184

Z

M184 182

C184 181 181 181 175 181

C168 181 167 181 172 182

C179 183 184 183 184 182

Z

M336 180

C335 180 335 180 334 180

C333 181 333 181 334 181

C335 181 336 181 336 180

Z

M442 175

C443 174 440 174 436 174

C432 174 429 174 429 175

C429 175 437 175 442 175

Z

M396 172

C395 172 395 172 394 172

C393 173 393 173 394 173

C395 173 396 173 396 172

Z

M80 168

C80 167 78 167 76 167

C73 167 71 167 71 168

C71 169 77 168 80 168

Z

M279 165

C279 165 278 165 276 165

C275 165 274 165 274 166

C275 167 279 166 279 165

Z

M446 166

C446 166 444 166 443 166

C442 167 443 167 445 167

C446 167 447 167 446 166

Z

M150 164

C152 163 152 163 148 163

C145 163 143 163 143 164

C143 165 146 165 150 164

Z

M323 160

C322 160 320 160 318 160

C317 161 318 161 321 161

C323 161 324 161 323 160

Z

M123 147

C132 146 130 145 121 145

C107 144 96 145 95 147

C94 147 93 148 92 148

C90 148 90 148 91 149

C91 149 98 149 105 148

C112 147 120 147 123 147

Z

M121 149

C121 148 121 148 120 148

C119 148 119 148 119 149

C119 150 119 150 120 150

C121 150 121 150 121 149

Z

M146 146

C146 146 144 146 142 146

C140 146 138 146 138 147

C138 147 140 147 142 147

C144 147 146 147 146 146

Z

M70 142

C70 141 69 141 67 142

C65 143 65 143 67 143

C68 143 69 143 70 142

Z

M466 165

C467 165 469 165 470 165

C471 166 470 166 468 166

C465 166 465 166 466 165

Z

M398 164

C400 163 403 163 403 164

C403 165 402 165 400 165

C397 165 397 165 398 164

Z

M375 163

C375 163 377 163 377 163

C378 164 377 164 376 164

C375 164 374 164 375 163

Z

M454 159

L451 158

L455 158

C457 157 459 156 458 156

C457 156 461 155 465 154

C470 153 474 153 475 153

C475 154 474 154 472 154

C471 154 469 155 468 155

C466 156 470 156 477 156

C484 156 488 156 487 157

C487 158 484 158 481 157

C477 157 472 157 468 158

C464 159 461 159 460 159

C458 160 456 159 454 159

Z

M444 158

C443 158 445 157 448 156

C451 155 453 155 454 155

C454 156 453 156 452 156

C450 157 449 157 449 158

C449 159 446 159 444 158

Z

M445 154

C446 154 448 153 451 153

C453 152 454 152 453 153

C452 153 450 154 448 154

C445 155 444 155 445 154

Z

M394 152

C388 152 382 151 381 151

C380 150 403 151 410 152

L414 153

L410 153

C408 153 401 152 394 152

Z

M277 146

C277 146 279 146 279 146

C280 147 279 147 278 147

C277 147 276 147 277 146

Z

M212 138

C213 138 213 138 214 138

C214 139 213 139 212 139

C211 139 211 139 212 138

Z

"/>

</svg>

