<?xml version="1.0" standalone="no"?>

<!DOCTYPE svg PUBLIC "-//W3C//DTD SVG 20010904//EN"

 "http://www.w3.org/TR/2001/REC-SVG-20010904/DTD/svg10.dtd">

<svg version="1.0" xmlns="http://www.w3.org/2000/svg"

 width="300.000000pt" height="200.000000pt" viewBox="0 0 300.000000 200.000000"

 preserveAspectRatio="xMidYMid meet">

<path fill="#fefefe" stroke="none" d="
M0 100

L0 0

L150 0

L300 0

L300 100

L300 200

L150 200

L0 200

L0 100

Z

"/>

<path fill="#b8dac6" stroke="none" d="
M35 188

C38 186 51 175 52 175

C53 175 55 174 58 173

C70 167 71 168 60 175

C56 177 49 181 44 184

C35 190 32 191 35 188

Z

M133 172

C133 171 134 169 136 167

C138 166 139 164 139 163

C138 163 134 162 129 161

C122 159 119 159 111 160

C99 161 93 162 92 163

C91 163 77 167 71 169

C69 169 69 169 71 167

C75 165 85 162 92 161

C96 160 100 159 101 159

C102 158 108 158 117 158

C129 158 133 158 140 160

L149 163

L153 160

C156 159 159 158 160 158

C162 158 161 161 158 162

C155 162 152 163 153 164

C154 165 155 165 156 164

C158 162 158 162 158 163

C158 167 176 169 196 168

C203 167 210 166 211 166

C211 165 213 165 214 165

C223 165 252 157 262 152

C264 151 266 150 267 150

C267 151 255 157 254 156

C254 156 253 157 252 158

C251 158 250 159 249 159

C249 158 248 158 248 159

C248 159 244 161 238 162

C233 163 228 165 228 165

C228 165 221 167 212 168

C190 171 169 171 157 168

C149 165 148 165 146 167

C143 169 135 173 134 173

C133 173 133 172 133 172

Z

M142 166

C143 166 143 165 143 164

C142 164 141 164 140 165

C138 167 140 168 142 166

Z

M143 159

C143 158 143 158 144 158

C145 158 145 158 145 159

C145 160 145 160 144 160

C143 160 143 160 143 159

Z

"/>

<path fill="#9bcbaf" stroke="none" d="
M37 188

C37 185 56 173 66 170

C69 169 68 170 65 171

C60 174 46 182 41 186

C39 188 37 189 37 188

Z

M133 172

C133 172 135 170 136 167

L140 163

L133 162

C122 159 115 159 100 161

C92 163 82 165 78 166

C74 168 70 169 70 169

C69 169 71 168 74 167

C77 166 80 165 80 164

C81 164 86 162 93 161

C99 160 106 158 109 158

C113 157 117 157 124 158

C129 159 134 159 136 160

C138 160 142 161 144 162

C149 163 149 163 153 161

C156 160 158 159 159 159

C162 159 161 161 158 162

C155 162 152 163 153 164

C153 165 157 165 157 164

C157 164 158 164 157 165

C157 165 158 166 158 166

C159 166 161 166 162 166

C163 167 169 167 175 168

C181 169 188 169 190 169

C192 168 198 167 204 167

C210 167 217 166 218 165

C220 165 226 163 231 162

C236 162 242 160 243 159

C246 158 248 158 247 160

C246 160 227 165 224 165

C223 165 222 165 222 166

C221 167 200 170 188 170

C177 171 161 169 155 167

L149 165

L144 167

C142 168 139 170 138 171

C136 173 133 174 133 172

Z

M143 166

C145 164 145 164 143 164

C141 163 139 165 139 166

C139 167 140 167 143 166

Z

M250 157

C251 156 252 156 253 156

C253 156 253 156 252 157

C251 158 250 158 250 158

C249 158 249 158 250 157

Z

M257 155

C258 154 264 151 264 151

C264 152 258 155 257 155

C257 155 257 155 257 155

Z

"/>

<path fill="#82bd9b" stroke="none" d="
M37 189

C37 187 50 176 53 176

C53 176 55 175 57 174

C61 171 67 169 68 169

C68 170 66 171 63 172

C56 175 44 183 40 187

C38 188 37 189 37 189

Z

M134 172

C133 172 134 170 136 169

C138 166 140 165 138 167

C138 168 139 167 141 166

C144 165 145 164 143 164

C142 163 141 163 140 164

C139 165 139 165 140 164

C140 162 140 162 138 162

C136 162 133 161 127 160

C123 160 118 159 115 159

C112 159 110 159 111 158

C111 157 123 157 131 159

C133 160 136 160 138 160

C139 161 142 161 145 162

C148 163 150 163 154 161

C158 159 162 158 160 160

C160 160 158 161 156 162

C154 163 152 164 153 164

C153 165 157 165 157 164

C157 164 158 164 157 165

C157 166 161 167 167 167

C182 168 192 169 191 170

C190 171 184 171 177 170

C160 169 158 168 153 167

C149 165 149 165 143 168

C140 169 137 171 136 172

C135 172 134 173 134 172

Z

M72 168

C74 167 76 166 77 166

C78 166 77 167 75 168

C73 168 71 169 70 169

C69 169 70 168 72 168

Z

M195 168

C199 167 219 166 217 167

C216 168 210 168 204 169

C197 169 194 169 195 168

Z

M80 165

C80 164 81 164 82 164

C82 165 81 165 80 165

C79 166 79 166 80 165

Z

M219 165

C220 165 243 160 244 160

C244 161 240 162 235 163

C224 165 218 166 219 165

Z

M84 163

C86 162 102 159 106 159

C111 159 107 160 98 162

C93 162 87 163 86 164

C83 164 83 164 84 163

Z

"/>

<path fill="#70b48c" stroke="none" d="
M37 188

C37 188 37 187 38 187

C39 186 39 187 38 187

C38 189 37 189 37 188

Z

M42 184

C45 180 55 174 55 176

C55 176 52 178 47 181

C43 184 40 185 42 184

Z

M60 173

C60 172 61 171 62 171

C64 170 66 170 67 169

C70 168 67 171 63 172

C60 174 59 174 60 173

Z

M133 172

C133 172 134 170 136 168

C138 167 139 166 138 167

C138 169 138 169 139 168

C140 168 141 167 141 167

C141 167 142 166 143 165

C145 165 145 165 144 164

C143 163 142 163 141 163

C141 164 140 164 140 163

C139 162 122 159 115 159

C110 159 110 159 113 158

C117 157 130 158 145 162

C148 163 149 163 154 161

C159 159 160 159 160 160

C160 161 159 161 158 161

C156 161 151 164 153 164

C156 166 168 168 180 169

C189 169 192 170 189 170

C184 171 158 169 152 166

C149 165 148 166 142 169

C135 172 133 172 133 172

Z

M72 168

C77 166 78 166 75 168

C73 168 71 169 70 169

C69 169 70 168 72 168

Z

M197 168

C197 168 202 167 207 167

C213 166 216 166 215 167

C215 168 210 168 205 169

C199 169 196 169 197 168

Z

M220 165

C221 165 221 165 222 165

C222 166 221 166 220 166

C219 166 219 166 220 165

Z

M225 164

C227 163 239 161 240 161

C240 162 237 163 233 163

C225 165 223 165 225 164

Z

M85 163

C87 162 104 159 105 159

C107 160 105 161 96 162

C91 163 87 163 86 164

C84 164 84 164 85 163

Z

"/>

<path fill="#4ea371" stroke="none" d="
M42 184

C46 180 51 177 53 176

C56 175 55 176 52 178

C50 179 47 181 44 183

C42 185 41 185 42 184

Z

M59 174

C59 173 64 170 66 170

C70 168 67 170 63 172

C61 173 59 174 59 174

Z

M133 172

C133 172 134 170 136 168

C138 166 139 166 138 167

C138 169 138 169 141 168

C142 167 144 166 144 165

C145 164 142 163 141 164

C140 164 140 164 140 163

C140 163 138 162 136 161

C135 161 133 161 133 160

C134 160 136 160 139 161

C147 163 149 163 154 161

C159 159 160 159 160 160

C160 161 159 161 159 161

C157 161 152 163 153 164

C155 166 167 168 178 169

C186 169 192 169 192 170

C192 170 188 170 182 170

C172 170 162 169 152 166

C149 165 148 166 141 169

C135 172 133 172 133 172

Z

M71 168

C73 167 75 167 73 168

C72 169 71 169 70 169

C69 169 69 169 71 168

Z

M199 168

C200 168 204 167 209 167

L217 166

L212 168

C206 169 195 169 199 168

Z

M220 165

C221 165 221 165 222 165

C222 166 221 166 220 166

C219 166 219 166 220 165

Z

M227 164

C228 163 238 161 239 161

C239 162 236 163 228 165

C226 165 226 165 227 164

Z

M89 162

C90 161 105 158 106 159

C106 159 103 160 99 161

C96 162 92 162 91 163

C90 163 89 163 89 162

Z

M117 159

C112 159 111 158 114 158

C119 158 125 158 129 159

C132 160 132 160 128 160

C126 160 121 159 117 159

Z

"/>

<path fill="#35955d" stroke="none" d="
M42 184

C42 183 44 182 44 182

C44 182 43 183 43 184

C42 185 40 186 40 186

C40 186 41 185 42 184

Z

M52 177

C52 176 53 176 54 176

C54 177 53 177 52 177

C51 178 51 178 52 177

Z

M60 173

C60 172 61 172 62 172

C62 173 61 173 60 173

C59 174 59 174 60 173

Z

M134 171

C134 171 135 169 136 169

C137 168 138 167 138 168

C138 169 139 168 142 167

C143 166 145 165 145 165

C145 164 143 164 141 163

C139 162 137 161 138 161

C138 161 141 162 144 162

C147 163 149 164 149 163

C151 162 152 162 152 163

C151 165 165 168 173 168

C177 168 180 169 180 169

C180 171 171 170 164 168

C148 165 149 165 141 169

C134 172 134 172 134 171

Z

M66 170

C66 169 66 169 67 169

C68 169 68 169 68 170

C67 171 67 171 66 171

C66 171 66 171 66 170

Z

M185 169

C187 169 189 169 190 169

C191 170 190 170 188 170

C185 170 184 170 185 169

Z

M197 169

C197 168 200 168 203 168

C206 167 208 167 208 168

C207 169 205 169 202 169

C199 169 197 169 197 169

Z

M212 166

C213 166 215 166 215 166

C216 167 215 167 214 167

C212 167 211 167 212 166

Z

M220 165

C221 165 221 165 222 165

C222 166 221 166 220 166

C219 166 219 166 220 165

Z

M231 163

C231 162 232 162 233 162

C234 162 235 162 235 162

C235 163 234 163 233 163

C232 164 231 163 231 163

Z

M95 161

C95 160 96 160 97 160

C97 160 98 160 98 161

C97 162 96 162 95 162

C95 162 94 162 95 161

Z

M134 160

C135 160 135 160 136 160

C136 161 135 161 134 161

C133 161 133 161 134 160

Z

M102 159

C102 159 104 159 104 159

C105 160 104 160 103 160

C102 160 101 160 102 159

Z

M122 159

C121 158 121 158 124 158

C127 158 127 158 126 159

C125 160 124 160 124 160

C124 160 123 160 122 159

Z

M130 159

C131 159 131 159 132 159

C132 160 131 160 130 160

C129 160 129 160 130 159

Z

M158 159

C159 159 159 159 160 159

C160 160 159 160 158 160

C157 160 157 160 158 159

Z

M113 158

C115 158 117 158 118 158

C119 159 118 159 116 159

C113 159 112 159 113 158

Z

"/>

</svg>

