<?xml version="1.0" standalone="no"?>

<!DOCTYPE svg PUBLIC "-//W3C//DTD SVG 20010904//EN"

 "http://www.w3.org/TR/2001/REC-SVG-20010904/DTD/svg10.dtd">

<svg version="1.0" xmlns="http://www.w3.org/2000/svg"

 width="700.000000pt" height="200.000000pt" viewBox="0 0 700.000000 200.000000"

 preserveAspectRatio="xMidYMid meet">

<path fill="#fefefe" stroke="none" d="
M0 100

L0 0

L350 0

L700 0

L700 100

L700 200

L350 200

L0 200

L0 100

Z

"/>

<path fill="#fecca8" stroke="none" d="
M111 199

C105 199 97 194 95 190

C93 187 96 177 101 170

C106 161 109 158 106 164

C106 166 105 169 105 169

C105 173 107 170 110 162

C112 157 115 152 117 150

C121 146 123 145 121 149

C119 153 121 152 124 149

C128 144 142 135 149 132

C158 128 172 127 194 128

C214 128 214 128 228 125

C236 123 246 120 251 119

C256 117 262 116 265 116

C269 115 269 115 268 116

C267 117 263 119 259 121

C255 122 251 124 251 124

C249 126 264 124 273 121

C282 118 283 118 282 120

C282 122 283 122 286 121

C287 120 289 119 291 119

C292 119 293 118 293 118

C294 116 296 116 302 116

C311 116 323 114 325 113

C326 112 326 111 325 110

C324 109 322 109 315 109

C310 110 306 110 306 110

C306 108 328 101 339 101

C343 100 350 99 354 98

C366 96 389 93 390 93

C390 94 389 94 388 94

C387 94 384 95 381 96

C378 97 369 99 360 100

C352 101 344 102 344 103

C343 103 358 103 364 102

C366 101 373 100 378 100

C382 99 390 98 394 97

C402 96 422 90 435 86

C448 81 460 78 459 79

C459 80 457 81 454 82

C446 86 446 87 454 88

C458 88 460 87 459 87

C457 86 457 86 459 86

C460 86 463 85 467 84

C472 82 476 82 475 84

C474 84 478 84 482 84

C495 84 496 83 485 83

L476 83

L484 82

C494 81 498 80 499 80

C499 79 495 79 490 79

L481 80

L489 78

C494 77 499 76 500 75

C502 75 508 73 514 72

C521 71 527 70 528 69

C529 69 529 69 529 70

C528 71 529 71 531 70

C535 68 548 63 556 62

C565 60 573 60 577 62

C578 63 580 63 581 63

C583 63 584 63 584 63

C583 63 584 64 586 65

L589 66

L587 61

C587 59 586 57 586 56

C587 56 588 58 590 60

C591 62 593 64 593 65

C594 65 596 68 597 70

C598 73 600 75 600 75

C600 74 600 72 601 70

C601 67 602 65 602 65

C604 64 606 78 605 84

C602 99 601 103 596 108

C591 112 589 113 584 113

C581 113 574 115 568 116

C551 121 548 122 542 126

C537 128 536 126 542 122

C544 119 546 118 546 117

C545 116 531 120 521 124

C509 128 504 133 503 139

C503 143 504 144 508 141

C509 140 509 140 508 141

C506 141 506 141 506 140

C507 140 509 139 511 139

C514 138 518 137 520 136

C524 134 526 134 524 136

C522 137 514 140 511 140

C511 140 510 140 511 141

C511 142 513 142 515 142

C516 142 518 143 519 143

C519 144 519 144 518 144

C518 143 517 143 517 144

C516 145 523 146 530 146

C532 146 539 147 546 148

C552 148 562 150 569 151

C582 152 606 157 613 160

C615 161 615 161 613 162

C611 162 602 161 595 159

C590 158 595 161 602 163

C611 166 627 173 631 177

C633 178 635 180 637 180

C639 181 640 182 640 183

C640 184 640 184 635 183

C632 182 629 181 626 181

L622 180

L625 183

C627 185 626 185 614 180

C592 173 582 170 570 170

C563 169 556 169 554 170

L550 171

L556 173

C559 175 562 176 562 177

C561 177 555 176 547 175

C531 173 515 172 511 173

C508 173 509 174 517 175

C530 177 525 178 497 179

C483 180 472 181 471 181

C469 183 455 183 450 181

C448 180 445 178 444 178

C442 176 439 176 439 178

C439 179 439 180 438 180

C437 179 432 168 432 166

C432 163 431 161 430 162

C428 162 427 158 428 154

C429 149 435 141 438 137

C440 136 441 135 441 134

C441 132 437 133 423 137

C407 141 407 141 408 142

C408 143 397 149 394 149

C393 149 391 150 390 150

C388 151 385 152 382 152

C380 153 376 154 374 154

C370 156 366 156 354 157

C348 157 342 158 341 159

C337 161 324 163 317 163

C309 163 309 165 319 168

L324 170

L310 170

C299 170 296 170 285 174

C278 175 271 178 269 179

C266 180 261 182 258 182

C249 184 251 185 263 185

L270 185

L265 187

C263 187 255 189 248 190

C241 190 232 191 228 192

C223 193 219 193 213 192

C203 191 197 191 197 192

C197 193 198 193 199 193

C205 193 194 195 180 196

C171 197 162 198 159 198

C152 199 116 200 111 199

Z

M373 151

C376 150 376 150 374 150

C372 150 369 150 367 151

C363 152 363 152 366 152

C367 152 370 152 373 151

Z

M387 148

C388 147 388 147 387 147

C386 147 385 148 384 148

C382 149 382 149 383 149

C384 149 385 148 387 148

Z

M364 108

C367 108 370 107 369 107

C368 107 364 107 359 107

C350 109 353 109 364 108

Z

M332 104

C330 104 328 104 328 105

C327 105 329 105 331 105

C335 105 335 105 332 104

Z

M342 103

C341 103 341 103 340 103

C339 104 339 104 340 104

C341 104 342 104 342 103

Z

M391 103

C392 102 392 102 390 102

C388 102 385 103 384 103

C382 104 382 104 385 104

C387 104 389 103 391 103

Z

M396 101

C396 101 394 101 394 101

C393 102 394 102 395 102

C396 102 397 102 396 101

Z

M506 80

C508 79 505 79 502 80

C500 81 500 81 502 81

C503 81 504 80 506 80

Z

M518 77

C523 76 524 76 522 75

C521 75 520 74 521 74

C523 74 527 72 527 71

C526 71 509 78 508 79

C508 79 508 79 509 79

C510 78 514 78 518 77

Z

M446 185

C443 184 443 181 446 181

C448 181 452 184 451 185

C451 186 448 186 446 185

Z

M592 178

C587 178 566 173 565 172

C565 172 569 172 574 172

C583 172 590 173 598 177

L603 179

L599 179

C597 179 594 178 592 178

Z

M90 175

C90 174 90 173 91 173

C92 172 92 173 91 175

C90 176 90 176 90 175

Z

M636 175

C635 174 632 173 631 172

L629 169

L631 169

C634 169 638 171 640 174

C643 176 642 176 636 175

Z

M635 167

C636 167 636 167 637 167

C637 168 636 168 635 168

C634 168 634 168 635 167

Z

M631 166

C632 166 632 166 633 166

C633 167 632 167 631 167

C630 167 630 167 631 166

Z

M255 109

C256 108 257 108 258 108

C259 108 259 108 258 109

C257 110 256 110 255 110

C254 110 254 110 255 109

Z

M281 110

C281 109 283 108 286 106

C290 104 291 104 290 106

C289 107 289 107 292 107

C293 106 298 105 303 103

C314 99 332 95 347 94

C353 93 359 93 361 93

C364 93 350 96 340 97

C327 98 317 100 309 103

C293 109 289 110 285 110

C283 110 281 110 281 110

Z

M461 81

C463 78 478 71 482 70

C484 70 484 70 480 73

C474 78 468 81 463 82

C459 82 459 82 461 81

Z

"/>

<path fill="#fe9a53" stroke="none" d="
M115 199

C106 198 99 195 96 190

C95 188 95 188 97 186

C98 185 98 185 97 184

C96 184 96 182 97 179

C98 175 104 164 105 164

C105 164 105 166 105 169

C105 171 105 173 106 173

C107 173 111 164 112 161

C112 158 115 154 117 151

C120 148 121 149 119 153

C115 157 117 156 123 150

C131 143 136 140 145 135

C151 132 154 131 151 134

C149 134 149 135 149 135

C151 135 156 132 156 131

C156 130 171 129 195 129

C216 128 219 128 227 126

C231 125 237 124 240 123

C242 123 247 122 250 120

C255 118 262 116 265 116

C267 116 262 119 257 121

C251 122 249 124 249 125

C250 126 260 125 271 122

C277 121 280 121 280 122

C280 123 283 123 286 122

C287 121 289 120 290 120

C292 120 293 119 294 119

C295 117 297 117 303 117

C312 117 326 114 326 112

C328 109 325 108 318 108

C312 108 313 108 322 107

C328 106 335 106 339 105

C342 105 349 105 355 105

L365 106

L356 106

C351 107 346 107 346 108

C345 109 344 109 343 109

C342 109 341 109 341 110

C341 111 343 111 345 111

C348 110 354 110 361 109

C370 109 376 108 394 104

C396 103 399 103 401 102

C403 102 406 101 408 100

L412 99

L408 99

C406 100 401 100 397 100

C393 101 385 102 381 103

C368 105 366 105 366 104

C366 103 373 101 395 97

C400 97 408 95 412 93

C417 92 422 91 423 91

C427 90 434 88 440 85

C444 84 454 80 456 80

C456 80 454 82 450 84

C447 86 444 88 444 88

C444 89 461 88 467 87

C470 86 478 85 485 85

C493 84 498 83 504 82

C508 80 515 78 519 77

C526 76 529 74 532 72

C539 66 556 61 568 61

C573 61 575 61 578 64

C580 65 581 66 582 66

C582 65 584 66 587 68

L592 70

L590 66

C586 59 589 59 594 67

C597 72 599 76 599 76

C599 77 599 77 600 77

C601 76 601 74 602 71

L602 66

L604 73

C605 79 605 82 602 95

C601 98 601 100 601 101

C601 101 599 103 597 105

C593 110 589 112 585 112

C581 112 556 118 548 121

C544 123 541 124 541 123

C541 123 543 121 545 120

C547 117 548 116 547 116

C543 116 528 120 521 123

C509 128 505 131 503 138

C501 141 500 144 500 145

C499 146 499 146 502 146

C506 145 510 145 512 145

C513 146 522 146 533 147

C554 149 569 151 586 154

C597 156 611 160 610 161

C610 161 605 160 599 159

C593 158 588 158 588 158

C588 159 592 160 596 162

C601 164 605 166 604 166

C604 167 608 169 613 170

C617 170 627 174 630 177

C631 178 634 180 636 181

C641 183 641 184 635 182

C630 180 619 178 619 179

C618 179 619 180 620 181

C622 182 618 181 607 177

C603 176 596 174 590 172

C581 169 579 169 564 169

C546 169 545 169 552 173

C556 175 556 175 543 173

C529 172 506 171 503 173

C502 174 502 174 505 174

C506 174 510 175 514 175

L520 177

L512 177

C508 178 498 178 490 178

C481 179 474 180 471 181

C463 183 449 181 444 177

C442 175 438 175 438 177

C438 180 433 168 432 163

C432 158 432 157 430 159

C429 160 429 160 429 158

C427 154 432 145 439 138

C445 132 442 131 429 135

C423 136 416 138 414 138

C411 139 408 140 408 140

C407 141 380 148 373 149

C364 150 358 151 356 153

C355 154 355 154 358 154

C360 154 360 154 357 155

C354 156 351 156 349 156

C347 156 343 157 342 158

C338 160 326 162 319 162

C310 162 307 166 315 168

C318 168 316 169 307 169

C297 169 293 170 281 174

C274 176 266 179 264 179

C263 180 261 181 260 181

C260 181 257 182 254 182

L249 183

L252 185

C254 185 257 186 259 186

C263 186 263 186 261 187

C259 188 253 188 249 189

C244 189 236 190 232 191

C227 192 223 192 217 191

C205 190 191 190 190 192

C189 193 190 193 192 193

C195 193 196 193 196 194

C195 194 187 195 177 196

C168 196 156 197 153 198

C143 199 124 200 115 199

Z

M627 177

C627 176 625 175 618 174

L613 174

L619 176

C625 178 627 178 627 177

Z

M248 173

C258 170 268 168 275 168

C278 168 280 168 280 167

C281 167 277 166 266 166

C264 166 260 166 256 167

C252 168 246 169 242 170

C236 171 235 171 236 173

C238 176 238 175 248 173

Z

M600 171

C599 170 598 170 598 170

C597 170 597 170 598 171

C598 172 599 172 599 172

C600 172 600 172 600 171

Z

M485 170

C484 170 484 170 483 170

C482 171 482 171 483 171

C484 171 485 171 485 170

Z

M496 169

C496 168 495 168 491 169

C489 170 489 170 492 170

C493 170 495 170 496 169

Z

M289 166

C288 166 288 166 287 166

C286 167 286 167 287 167

C288 167 289 167 289 166

Z

M308 166

C308 165 307 164 305 165

C303 165 304 167 306 167

C307 167 308 167 308 166

Z

M285 165

C284 165 284 165 283 165

C282 166 282 166 283 166

C284 166 285 166 285 165

Z

M291 164

C290 164 290 164 289 164

C288 165 288 165 289 165

C290 165 291 165 291 164

Z

M338 156

C335 156 331 157 331 158

C331 158 333 158 335 158

C338 157 339 156 338 156

Z

M495 154

C494 154 492 154 490 154

C489 155 490 155 493 155

C495 155 496 155 495 154

Z

M191 152

C193 152 198 151 202 150

C213 150 217 148 207 149

C198 149 188 151 187 153

C185 154 186 154 191 152

Z

M386 143

C385 143 385 143 384 143

C383 144 383 144 384 144

C385 144 386 144 386 143

Z

M406 139

C405 139 405 139 404 139

C403 140 403 140 404 140

C405 140 406 140 406 139

Z

M412 127

C414 127 415 126 415 126

C414 125 407 127 406 128

C405 129 408 129 412 127

Z

M246 126

C246 124 244 123 244 125

C244 126 245 127 246 127

C247 127 247 126 246 126

Z

M590 101

C589 100 589 100 589 101

C589 102 589 103 590 103

C590 102 590 102 590 101

Z

M415 98

C414 98 414 98 413 98

C412 99 412 99 413 99

C414 99 415 99 415 98

Z

M439 89

C439 89 438 88 437 89

C434 89 433 91 436 91

C437 91 439 90 439 89

Z

M595 75

C595 75 584 70 583 70

C582 70 584 71 588 73

C594 76 595 76 595 75

Z

M446 184

C445 183 445 182 446 182

C448 182 450 183 450 184

C450 186 447 185 446 184

Z

M583 176

C572 174 568 171 577 173

C587 174 602 178 596 178

C594 178 589 177 583 176

Z

M634 173

C632 172 631 171 632 170

C633 170 639 172 639 174

C641 176 638 175 634 173

Z

M367 153

C368 153 368 153 369 153

C369 154 368 154 367 154

C366 154 366 154 367 153

Z

M383 150

C387 149 391 148 391 148

C391 149 385 151 380 151

C377 152 377 152 383 150

Z

M283 109

C284 108 285 108 286 107

C288 106 288 106 287 108

C287 109 286 110 285 110

C284 110 283 110 283 109

Z

M323 104

C330 101 334 102 328 104

C326 105 322 106 321 106

C318 106 318 106 323 104

Z

M352 100

C353 99 360 98 359 99

C359 100 357 100 355 100

C353 100 352 100 352 100

Z

M323 98

C323 98 325 98 325 98

C326 99 325 99 324 99

C323 99 322 99 323 98

Z

M349 94

C350 94 352 94 353 94

C354 95 353 95 351 95

C349 95 348 95 349 94

Z

M488 82

C488 82 490 82 490 82

C491 83 490 83 489 83

C488 83 487 83 488 82

Z

M463 80

C464 79 481 70 481 71

C481 72 479 73 477 74

C473 77 462 82 463 80

Z

M486 79

C487 79 489 79 489 79

C490 80 489 80 488 80

C486 80 485 80 486 79

Z

M492 78

C493 78 493 78 494 78

C494 79 493 79 492 79

C491 79 491 79 492 78

Z

M499 78

C497 77 498 77 502 76

C509 74 519 72 520 72

C520 73 507 78 504 78

C502 79 500 78 499 78

Z

M526 74

C526 73 527 73 528 72

C529 71 530 71 530 71

C530 72 529 72 528 73

C527 74 526 74 526 74

Z

"/>

</svg>

