<?xml version="1.0" standalone="no"?>

<!DOCTYPE svg PUBLIC "-//W3C//DTD SVG 20010904//EN"

 "http://www.w3.org/TR/2001/REC-SVG-20010904/DTD/svg10.dtd">

<svg version="1.0" xmlns="http://www.w3.org/2000/svg"

 width="500.000000pt" height="200.000000pt" viewBox="0 0 500.000000 200.000000"

 preserveAspectRatio="xMidYMid meet">

<path fill="#fefefe" stroke="none" d="
M0 100

L0 0

L250 0

L500 0

L500 100

L500 200

L250 200

L0 200

L0 100

Z

"/>

<path fill="#ffcca8" stroke="none" d="
M129 197

C130 197 130 196 130 195

C130 195 131 193 133 191

L135 188

L135 191

C135 194 134 196 133 197

C131 199 129 200 129 197

Z

M77 196

C78 193 78 193 77 194

C76 194 77 193 78 191

C82 187 82 186 76 186

C73 187 71 187 71 187

C71 186 79 182 81 182

C82 182 81 181 80 181

C76 180 71 181 71 183

C71 185 67 186 65 184

C64 183 63 183 58 183

C51 184 46 182 48 180

C49 178 53 179 53 181

C53 181 53 182 54 182

C55 182 75 176 77 175

C80 174 80 174 78 172

C78 171 73 169 69 168

C44 160 40 159 33 159

C25 159 24 159 40 155

C49 153 50 151 45 148

C42 146 41 146 41 147

C40 149 40 148 38 146

C35 144 35 144 31 145

C29 146 25 147 23 147

L18 148

L25 144

C29 142 32 140 32 140

C32 138 28 136 23 135

C18 134 19 132 24 132

L27 131

L22 129

C20 128 17 127 15 126

C10 125 10 125 12 123

L14 120

L11 119

C10 118 8 116 7 115

C5 113 5 113 7 113

C8 113 11 114 13 116

C17 119 21 120 37 127

C45 130 48 130 44 128

C43 126 43 126 46 127

C48 127 52 128 55 129

C60 131 61 131 61 129

C60 128 61 128 65 128

C76 130 89 128 90 125

C90 123 81 114 78 114

C77 114 75 113 74 112

L72 110

L74 110

C77 110 78 109 75 107

C75 106 70 102 66 97

L59 88

L65 91

C68 93 77 98 85 103

C105 115 118 121 118 117

C118 116 116 115 108 113

L101 111

L108 111

C118 110 118 110 113 108

C109 106 109 106 112 106

C114 106 115 106 115 105

C115 104 110 99 107 96

C105 95 105 95 107 96

C108 96 110 97 111 97

C113 97 113 97 105 86

C101 81 99 77 99 76

C100 76 109 84 112 89

C114 91 114 91 113 89

C113 88 112 85 112 83

L111 79

L113 83

C122 100 134 109 163 120

C174 124 177 125 183 125

C190 125 191 125 197 121

C200 119 203 116 204 115

C205 114 205 114 203 116

C199 118 194 120 194 119

C194 118 197 115 203 111

C207 108 208 108 206 111

C204 115 206 113 209 108

C216 99 217 96 217 87

C217 80 217 77 219 78

C219 79 219 81 220 84

C220 87 221 89 221 90

C222 90 223 88 223 85

L225 81

L225 87

C224 100 214 114 199 124

C182 135 160 160 153 176

C151 181 151 181 152 175

C153 170 153 168 151 169

C151 170 147 176 144 183

C138 196 135 199 137 193

C138 188 140 170 139 169

C138 167 135 170 126 178

C118 186 117 186 122 179

C123 177 124 176 124 176

C124 175 119 176 115 178

C103 181 81 191 83 192

C85 193 84 195 80 197

C77 199 76 198 77 196

Z

M56 192

C56 191 56 190 57 190

C57 190 58 191 59 192

C60 193 60 193 58 193

C57 193 56 192 56 192

Z

M112 188

C112 186 114 183 115 183

C117 183 116 187 115 188

C113 189 113 189 112 188

Z

M25 178

C24 176 21 173 20 171

L19 168

L22 170

C25 173 35 178 35 177

C35 177 37 177 39 178

L43 179

L41 181

C40 181 36 182 34 182

C29 182 28 181 25 178

Z

M61 171

C60 169 60 169 61 168

C64 168 67 168 67 170

C67 172 63 172 61 171

Z

M463 147

C461 144 460 143 459 145

C457 147 456 146 456 140

C454 129 454 125 455 125

C457 125 460 129 460 131

C460 132 462 136 464 141

C465 145 467 149 467 149

C467 150 465 149 463 147

Z

M9 145

C1 144 1 144 11 140

C17 138 22 138 22 140

C22 141 17 146 16 146

C16 146 12 145 9 145

Z

M377 137

C378 135 378 133 379 132

C379 129 373 129 369 133

C366 135 363 136 363 134

C363 133 365 131 367 129

C370 126 371 125 370 125

C368 126 365 126 363 127

C360 128 354 130 350 132

C346 134 341 136 339 137

L336 137

L338 135

C339 133 341 132 342 131

C345 131 369 117 369 116

C369 116 368 116 367 117

C366 118 364 118 363 118

L361 118

L363 116

C365 114 372 111 373 112

C373 112 372 113 371 114

C370 116 370 116 374 114

C383 108 389 104 396 95

C404 85 404 85 393 88

C388 89 387 90 389 90

C392 90 392 90 391 92

C390 93 384 96 383 96

C381 96 382 94 384 92

L386 90

L383 91

C379 92 354 101 349 103

C343 106 343 106 343 105

C344 104 343 104 341 105

C340 106 339 106 338 106

C337 106 345 98 348 95

L351 93

L351 95

C350 97 351 96 355 93

C357 90 359 88 359 87

C358 87 356 87 353 88

C350 89 346 89 344 89

C342 89 339 90 336 91

C333 92 331 92 331 92

C330 92 333 89 338 86

C344 81 347 78 346 77

C345 77 344 78 342 78

C341 79 339 80 338 80

C337 80 337 80 338 81

C339 82 339 82 339 82

C336 82 335 81 336 79

C338 77 344 73 346 73

C347 73 348 72 348 71

C349 69 350 68 351 67

C353 67 353 67 351 64

C348 62 347 61 328 53

C321 50 315 48 315 47

C316 47 330 50 336 52

C342 54 356 56 362 56

C366 56 365 49 358 40

C355 36 356 36 361 39

C364 41 367 42 368 42

C369 42 371 38 372 36

C372 32 372 32 373 32

C374 32 376 34 378 37

C380 39 382 41 382 41

C383 41 384 42 385 44

C388 47 393 50 393 48

C393 46 390 40 389 40

C388 40 388 39 388 38

C388 37 388 35 387 34

C387 32 388 33 390 35

C391 37 394 38 395 38

C397 38 396 36 388 28

C378 18 376 16 382 20

C385 22 395 25 396 24

C397 24 394 19 390 14

C387 10 383 5 383 4

C382 3 382 3 384 4

C391 9 400 12 407 12

C410 12 412 11 415 8

C418 5 418 5 418 7

C417 9 418 10 418 10

C418 10 421 8 423 5

L428 1

L430 5

C432 8 437 14 439 14

C440 14 445 9 449 3

L452 0

L451 5

C451 12 453 18 459 20

C462 22 464 22 472 22

C478 22 482 21 482 22

C482 22 480 23 477 24

C475 25 470 27 467 29

C462 33 462 33 465 33

C468 33 474 37 471 37

C470 37 469 37 469 38

C469 39 470 39 471 38

C473 37 486 33 486 34

C486 34 484 35 482 37

C476 41 476 42 480 42

C482 42 485 43 486 43

C488 44 488 44 485 45

C483 45 481 46 479 46

C477 46 472 50 468 54

C467 56 467 56 468 56

C469 57 474 58 479 60

C488 62 489 63 490 61

C492 60 492 60 496 62

C498 63 500 64 500 64

C499 66 490 71 487 71

C484 71 483 68 485 66

C486 65 487 64 487 63

C487 63 486 63 486 64

C485 65 484 66 483 66

C482 66 480 73 480 77

C480 79 481 80 488 82

C495 84 495 84 493 85

C491 86 489 86 488 86

C486 85 482 86 478 87

C474 88 467 89 464 90

L458 90

L466 93

C470 94 474 96 476 97

C477 98 477 98 475 98

C473 98 473 98 475 100

C475 101 477 102 478 102

C481 102 484 104 483 105

C482 105 480 106 478 106

C473 107 472 109 476 113

L479 116

L474 116

C472 115 468 115 466 114

C463 114 463 114 463 116

C463 118 464 120 465 122

C467 125 465 124 458 119

C450 112 448 112 449 120

C450 123 450 126 450 126

C450 127 447 124 445 120

C442 116 440 113 439 113

C439 113 438 116 437 119

C436 122 435 126 434 128

C433 130 433 130 434 121

C434 116 434 111 435 111

C435 110 435 109 433 110

C432 110 431 111 431 112

C431 113 430 111 429 108

C426 98 423 94 420 93

C417 93 417 93 418 94

C419 96 419 96 417 98

C415 101 413 101 413 98

C414 96 413 95 412 96

C410 97 402 106 398 112

C394 117 392 118 394 115

C395 111 392 114 388 121

C386 124 383 130 381 134

C378 138 377 139 377 137

Z

M356 135

C357 131 363 128 363 131

C363 132 358 137 356 137

C354 138 354 138 356 135

Z

M410 124

C410 122 412 120 413 120

C414 120 414 123 413 125

C411 127 410 126 410 124

Z

M56 123

C54 122 51 117 52 116

C53 116 61 123 61 124

C61 126 59 125 56 123

Z

M38 122

C37 120 37 118 38 118

C40 118 42 121 42 122

C41 123 40 123 38 122

Z

M483 117

C482 116 481 115 481 114

C482 114 489 116 490 118

C492 120 485 119 483 117

Z

M411 116

C411 115 412 113 412 112

C413 110 413 109 412 108

C411 107 411 106 411 106

C411 106 413 105 416 103

L420 101

L422 105

L425 109

L423 112

C421 115 420 116 418 115

C416 114 416 114 414 116

C413 119 411 119 411 116

Z

M14 113

C13 110 13 108 14 108

C15 108 16 110 17 112

C19 115 19 115 17 115

C16 115 15 114 14 113

Z

M61 107

C60 104 60 104 62 105

C67 106 69 109 65 109

C63 109 62 108 61 107

Z

M6 106

C5 104 4 102 4 100

L4 98

L7 100

C8 102 9 104 9 106

C9 109 9 109 6 106

Z

M365 105

C365 104 366 103 367 101

C368 98 373 95 376 95

C378 95 378 95 375 98

C370 102 365 105 365 105

Z

M90 103

C88 102 87 97 89 97

C89 97 91 98 92 100

C94 103 93 105 90 103

Z

M98 102

C98 102 97 101 98 101

C98 100 95 96 92 93

C89 89 86 86 86 85

C87 85 91 87 95 90

C97 92 99 93 100 93

C101 93 103 95 104 97

C106 101 107 102 105 102

C104 103 100 103 98 102

Z

M484 98

C482 97 479 96 478 94

L475 93

L479 91

C485 90 491 90 494 91

C496 93 496 93 491 93

L487 94

L490 97

C492 99 492 99 491 99

C489 99 487 98 484 98

Z

M213 94

C212 92 212 90 213 88

C213 86 214 86 215 87

C216 88 216 92 215 94

C215 97 213 96 213 94

Z

M60 84

C57 82 55 79 55 75

C55 73 55 73 57 74

C58 75 64 85 63 85

C63 85 61 84 60 84

Z

M324 83

C324 83 323 82 323 82

C323 81 327 81 327 82

C328 83 326 84 324 83

Z

M92 73

C90 70 92 68 94 71

C95 71 96 73 96 74

C96 76 93 75 92 73

Z

M47 63

C47 61 47 58 49 57

C50 57 51 60 50 62

C50 64 48 65 47 63

Z

M323 58

L320 55

L324 55

C327 55 329 56 331 58

L334 61

L330 61

C327 61 325 60 323 58

Z

M303 45

C302 44 302 44 305 44

C307 44 309 45 309 46

C309 47 306 47 303 45

Z

M384 37

C382 35 382 32 384 32

C385 32 387 36 387 38

C387 40 385 39 384 37

Z

M471 29

C474 26 479 24 484 24

C487 23 489 23 489 24

C489 24 479 29 476 29

C474 30 472 30 471 31

L469 31

L471 29

Z

M369 27

C368 25 371 23 372 25

C373 26 373 28 371 28

C371 28 370 28 369 27

Z

M372 11

C371 10 371 9 371 8

C372 8 378 11 378 12

C379 15 374 14 372 11

Z

M412 4

C412 2 415 1 416 2

C416 4 415 6 414 6

C413 6 412 5 412 4

Z

"/>

<path fill="#95d1ae" stroke="none" d="
M129 197

C130 197 130 196 130 195

C130 195 131 193 133 191

L135 188

L135 191

C135 194 134 196 133 197

C131 199 129 200 129 197

Z

M77 196

C78 193 78 193 77 194

C76 194 77 193 78 191

C82 187 82 186 76 186

C73 187 71 187 71 187

C71 186 79 182 81 182

C82 182 81 181 80 181

C76 180 71 181 71 183

C71 185 67 186 65 184

C64 183 63 183 58 183

C51 184 46 182 48 180

C49 178 53 179 53 181

C53 181 53 182 54 182

C55 182 75 176 77 175

C80 174 80 174 78 172

C78 171 73 169 69 168

C44 160 40 159 33 159

C25 159 24 159 40 155

C49 153 50 151 45 148

C42 146 41 146 41 147

C40 149 40 148 38 146

C35 144 35 144 31 145

C29 146 25 147 23 147

L18 148

L25 144

C29 142 32 140 32 140

C32 138 28 136 23 135

C18 134 19 132 24 132

L27 131

L22 129

C20 128 17 127 15 126

C10 125 10 125 12 123

L14 120

L11 119

C10 118 8 116 7 115

C5 113 5 113 7 113

C8 113 11 114 13 116

C17 119 21 120 37 127

C45 130 48 130 44 128

C43 126 43 126 46 127

C48 127 52 128 55 129

C60 131 61 131 61 129

C60 128 61 128 65 128

C76 130 89 128 90 125

C90 123 81 114 78 114

C77 114 75 113 74 112

L72 110

L74 110

C77 110 78 109 75 107

C75 106 70 102 66 97

L59 88

L65 91

C68 93 77 98 85 103

C105 115 118 121 118 117

C118 116 116 115 108 113

L101 111

L108 111

C118 110 118 110 113 108

C109 106 109 106 112 106

C114 106 115 106 115 105

C115 104 110 99 107 96

C105 95 105 95 107 96

C108 96 110 97 111 97

C113 97 113 97 105 86

C101 81 99 77 99 76

C100 76 109 84 112 89

C114 91 114 91 113 89

C113 88 112 85 112 83

L111 79

L113 83

C122 100 134 109 163 120

C174 124 177 125 183 125

C190 125 191 125 197 121

C200 119 203 116 204 115

C205 114 205 114 203 116

C199 118 194 120 194 119

C194 118 197 115 203 111

C207 108 208 108 206 111

C204 115 206 113 209 108

C216 99 217 96 217 87

C217 80 217 77 219 78

C219 79 219 81 220 84

C220 87 221 89 221 90

C222 90 223 88 223 85

L225 81

L225 87

C224 100 214 114 199 124

C182 135 160 160 153 176

C151 181 151 181 152 175

C153 170 153 168 151 169

C151 170 147 176 144 183

C138 196 135 199 137 193

C138 188 140 170 139 169

C138 167 135 170 126 178

C118 186 117 186 122 179

C123 177 124 176 124 176

C124 175 119 176 115 178

C103 181 81 191 83 192

C85 193 84 195 80 197

C77 199 76 198 77 196

Z

M56 192

C56 191 56 190 57 190

C57 190 58 191 59 192

C60 193 60 193 58 193

C57 193 56 192 56 192

Z

M112 188

C112 186 114 183 115 183

C117 183 116 187 115 188

C113 189 113 189 112 188

Z

M25 178

C24 176 21 173 20 171

L19 168

L22 170

C25 173 35 178 35 177

C35 177 37 177 39 178

L43 179

L41 181

C40 181 36 182 34 182

C29 182 28 181 25 178

Z

M61 171

C60 169 60 169 61 168

C64 168 67 168 67 170

C67 172 63 172 61 171

Z

M463 146

C461 143 460 143 459 144

C457 146 456 145 456 139

C456 135 456 132 455 132

C454 131 455 126 456 126

C457 126 459 129 459 131

C460 135 461 137 464 143

C466 146 467 149 467 149

C467 149 465 148 463 146

Z

M9 145

C1 144 1 144 11 140

C17 138 22 138 22 140

C22 141 17 146 16 146

C16 146 12 145 9 145

Z

M356 135

C357 133 361 130 362 130

C364 130 360 135 357 136

C355 137 355 137 356 135

Z

M337 136

C337 135 340 133 345 131

C353 127 354 126 369 117

C384 108 388 106 397 95

L405 85

L401 86

C392 87 358 98 349 103

C347 103 346 104 346 104

C346 103 349 100 352 97

C358 90 359 88 359 87

C358 87 338 89 334 91

C332 91 334 89 338 87

C343 83 349 76 348 75

C347 75 345 76 343 77

C340 79 338 80 337 80

C335 80 341 75 345 74

C347 73 349 72 349 71

C349 71 350 69 351 68

C353 66 353 66 351 64

C349 61 343 58 331 53

C320 49 319 48 329 51

C340 54 345 55 353 56

C366 58 368 56 361 44

L358 38

L363 41

C368 43 368 43 370 42

C370 41 371 38 372 36

C372 34 373 32 373 32

C374 32 375 34 377 36

C379 39 381 41 383 42

C384 43 385 44 385 44

C385 45 391 49 393 49

C394 49 394 46 391 42

C390 40 389 38 389 37

C389 36 389 36 391 37

C393 39 398 39 398 38

C398 38 395 35 392 32

C389 29 385 25 384 23

L381 20

L385 22

C387 23 390 24 393 25

C399 26 398 24 391 14

L384 5

L388 8

C393 10 404 13 409 13

C411 13 412 12 414 10

C417 5 417 5 417 9

L416 12

L419 10

C420 9 423 7 424 5

C426 3 428 2 428 2

C428 2 429 3 430 5

C431 7 433 10 435 12

C439 16 439 16 446 8

C449 4 450 3 450 5

C449 7 450 9 451 11

C451 12 452 14 452 15

C452 15 454 17 455 19

C459 22 465 23 473 23

L480 22

L476 24

C474 24 470 27 466 29

L460 34

L463 34

C465 34 468 34 469 35

C471 35 471 35 469 37

C467 39 469 39 477 37

C483 35 484 34 482 36

C476 40 475 41 477 42

C478 43 481 43 483 43

C486 43 487 43 486 44

C484 44 482 45 481 45

C477 45 469 50 468 54

C467 55 467 56 467 57

C467 57 472 58 477 60

C481 61 486 62 486 62

C486 63 485 64 483 66

C480 69 478 77 480 79

C480 80 484 81 488 82

L495 85

L490 85

C487 85 480 86 475 87

C470 88 463 89 461 90

L457 91

L463 92

C471 95 474 97 473 98

C473 100 477 103 480 103

C481 103 482 103 482 104

C482 105 481 105 479 105

C476 105 472 107 472 109

C472 109 473 111 475 113

C477 116 477 117 472 115

C467 112 464 113 463 115

C462 117 462 118 463 120

C465 124 464 123 457 117

C449 110 447 112 449 121

C449 124 450 126 450 126

C449 126 447 123 445 120

C440 111 437 110 437 116

C437 118 436 121 435 123

C434 126 434 126 435 118

C435 110 435 109 433 107

C432 106 431 106 431 109

C431 112 431 112 429 107

C429 104 427 100 425 98

C423 94 422 94 418 94

C413 94 409 97 402 105

C400 109 397 112 396 113

C394 115 394 115 395 114

C396 109 391 116 385 126

C379 136 377 138 379 133

C379 131 380 130 379 130

C378 128 373 129 370 132

C366 134 364 135 364 133

C364 133 366 131 368 129

C371 127 372 125 372 125

C371 124 357 128 349 132

C342 136 337 137 337 136

Z

M56 123

C54 122 51 117 52 116

C53 116 61 123 61 124

C61 126 59 125 56 123

Z

M411 124

C411 122 413 120 414 121

C414 122 414 123 413 124

C411 125 411 125 411 124

Z

M38 122

C37 120 37 118 38 118

C40 118 42 121 42 122

C41 123 40 123 38 122

Z

M484 117

L482 115

L485 115

C486 116 488 117 489 118

C491 120 487 119 484 117

Z

M363 117

C363 116 367 113 370 112

C372 112 372 112 371 114

C369 116 363 118 363 117

Z

M411 117

C411 117 412 114 413 112

C414 110 414 108 413 107

C412 107 412 106 412 106

C412 106 414 105 416 104

L420 102

L422 106

C424 109 424 110 421 114

C420 115 420 115 418 114

C416 113 416 113 414 116

C412 117 411 118 411 117

Z

M14 113

C13 110 13 108 14 108

C15 108 16 110 17 112

C19 115 19 115 17 115

C16 115 15 114 14 113

Z

M61 107

C60 104 60 104 62 105

C67 106 69 109 65 109

C63 109 62 108 61 107

Z

M6 106

C5 104 4 102 4 100

L4 98

L7 100

C8 102 9 104 9 106

C9 109 9 109 6 106

Z

M340 105

C340 104 346 97 348 96

C350 95 350 95 348 98

C347 101 340 106 340 105

Z

M90 103

C88 102 87 97 89 97

C89 97 91 98 92 100

C94 103 93 105 90 103

Z

M98 102

C98 102 97 101 98 101

C98 100 95 96 92 93

C89 89 86 86 86 85

C87 85 91 87 95 90

C97 92 99 93 100 93

C101 93 103 95 104 97

C106 101 107 102 105 102

C104 103 100 103 98 102

Z

M367 101

C368 98 372 96 374 96

C376 96 375 97 372 99

C367 103 365 104 367 101

Z

M414 99

C413 98 415 95 417 95

C417 95 418 95 418 96

C418 97 414 100 414 99

Z

M482 96

C478 94 477 93 480 92

C484 91 492 91 494 92

C495 93 494 93 490 93

C484 93 484 93 485 94

C490 98 491 98 489 98

C487 98 485 97 482 96

Z

M213 94

C212 92 212 90 213 88

C213 86 214 86 215 87

C216 88 216 92 215 94

C215 97 213 96 213 94

Z

M384 93

C384 92 389 90 390 91

C390 92 385 95 384 95

C383 95 383 94 384 93

Z

M60 84

C57 82 55 79 55 75

C55 73 55 73 57 74

C58 75 64 85 63 85

C63 85 61 84 60 84

Z

M325 82

C326 82 326 82 327 82

C327 83 326 83 325 83

C324 83 324 83 325 82

Z

M92 73

C90 70 92 68 94 71

C95 71 96 73 96 74

C96 76 93 75 92 73

Z

M485 69

C485 67 491 61 492 61

C494 61 499 63 499 64

C499 65 494 68 492 68

C492 68 491 69 491 69

C491 70 490 70 488 70

C486 70 485 69 485 69

Z

M47 63

C47 61 47 58 49 57

C50 57 51 60 50 62

C50 64 48 65 47 63

Z

M324 58

C321 55 321 55 323 55

C325 55 332 58 332 59

C332 61 326 60 324 58

Z

M304 45

C303 44 303 44 304 44

C305 44 306 44 307 45

C308 46 308 46 307 46

C306 46 305 46 304 45

Z

M384 37

C383 36 383 34 383 33

C384 32 384 32 385 34

C386 37 386 39 384 37

Z

M473 29

C476 26 483 24 485 24

C488 24 479 29 474 29

C471 30 471 30 473 29

Z

M370 25

C370 25 370 24 371 25

C372 25 372 26 372 26

C372 27 372 27 371 27

C370 27 370 26 370 25

Z

M374 12

C373 11 372 10 372 10

C373 9 378 12 378 13

C378 15 376 14 374 12

Z

M412 5

C412 4 413 4 414 3

C415 2 415 2 415 3

C415 4 414 5 414 5

C413 5 412 5 412 5

Z

"/>

<path fill="#fe9951" stroke="none" d="
M131 195

C131 193 133 191 134 190

C136 188 135 193 133 196

C130 200 129 200 131 195

Z

M77 198

C77 197 78 195 79 193

C80 190 81 187 81 187

C81 186 79 186 76 186

C73 186 72 186 74 185

C75 184 77 184 78 183

C82 183 83 181 80 180

C76 180 70 181 71 182

C71 183 69 185 67 185

C66 185 65 184 66 184

C66 182 65 182 60 183

L54 183

L60 181

C63 180 68 178 71 178

C78 176 81 174 79 172

C78 170 68 167 51 162

C46 161 43 159 44 159

C45 159 41 158 36 159

L28 159

L37 156

C49 153 50 152 46 148

C42 145 42 145 41 147

C40 148 39 148 39 147

C39 145 35 144 30 145

C28 146 24 147 23 147

C21 147 22 146 27 144

C30 142 33 140 33 140

C32 138 26 135 23 135

C19 134 20 132 25 132

C28 132 28 132 22 128

C18 127 13 125 12 125

L10 125

L12 123

L15 121

L11 118

C8 116 6 114 6 114

C6 113 6 113 7 113

C31 125 52 134 46 128

C44 127 44 127 48 127

C50 128 53 129 56 130

C58 130 60 131 61 131

C63 131 63 131 62 129

C61 128 61 128 65 129

C71 130 79 129 85 128

C89 127 90 126 90 125

C90 122 82 115 78 114

C77 113 75 112 74 112

C72 110 72 110 74 110

C76 110 77 110 77 109

C77 109 73 104 68 99

C60 89 60 89 64 91

C67 92 74 97 80 101

C93 109 108 116 113 118

C116 119 117 119 118 117

C119 116 118 115 110 113

L103 111

L108 111

C117 111 118 110 114 108

C111 106 111 106 113 106

C116 106 116 105 111 100

C107 96 107 96 110 97

C113 98 113 97 106 87

C103 82 100 78 100 78

C100 77 103 80 107 84

C111 88 114 91 114 90

C113 88 113 86 112 85

C112 82 112 82 115 87

C123 101 136 111 163 120

C171 123 177 125 182 126

L190 126

L196 122

C203 117 211 108 215 100

C218 94 218 93 217 86

C217 77 219 76 220 85

C220 88 221 91 221 91

C221 91 223 89 223 87

L225 83

L224 88

C223 101 211 117 197 125

C192 128 187 133 180 139

C168 153 164 157 158 168

C152 177 152 177 154 171

C154 169 154 169 152 169

C151 169 148 174 145 181

C138 194 137 196 138 190

C138 188 139 183 140 177

C140 166 140 165 131 173

C119 184 118 185 123 178

C124 176 125 175 124 175

C121 175 104 181 94 186

C82 191 78 193 82 192

C84 192 85 193 82 195

C80 197 77 198 77 198

Z

M115 93

C115 93 115 92 114 92

C114 93 114 93 114 94

C115 96 116 95 115 93

Z

M113 186

C113 185 114 184 115 184

C116 184 116 184 116 186

C116 187 115 188 114 188

C113 188 113 188 113 186

Z

M29 181

C28 181 20 171 20 170

C20 169 22 170 24 172

C28 175 31 176 38 178

C40 179 42 180 41 180

C40 181 31 182 29 181

Z

M48 181

C48 180 50 179 51 179

C52 179 53 179 53 180

C53 181 51 182 50 182

C49 182 48 182 48 181

Z

M61 171

C60 170 60 170 62 169

C64 168 67 169 67 170

C67 171 63 172 61 171

Z

M463 146

C461 143 460 143 459 144

C457 146 456 145 456 139

C456 135 456 132 455 132

C454 131 455 126 456 126

C457 126 459 129 459 131

C460 135 461 137 464 143

C466 146 467 149 467 149

C467 149 465 148 463 146

Z

M16 145

C15 145 12 145 9 145

C3 145 1 144 6 142

C7 142 10 141 13 140

C17 138 21 138 21 140

C21 142 17 146 16 145

Z

M356 135

C357 133 361 130 362 130

C364 130 360 135 357 136

C355 137 355 137 356 135

Z

M337 136

C337 135 340 133 345 131

C353 127 354 126 369 117

C384 108 388 106 397 95

L405 85

L401 86

C392 87 358 98 349 103

C347 103 346 104 346 104

C346 103 349 100 352 97

C358 90 359 88 359 87

C358 87 338 89 334 91

C332 91 334 89 338 87

C343 83 349 76 348 75

C347 75 345 76 343 77

C340 79 338 80 337 80

C335 80 341 75 345 74

C347 73 349 72 349 71

C349 71 350 69 351 68

C353 66 353 66 351 64

C349 61 343 58 331 53

C320 49 319 48 329 51

C340 54 345 55 353 56

C366 58 368 56 361 44

L358 38

L363 41

C368 43 368 43 370 42

C370 41 371 38 372 36

C372 34 373 32 373 32

C374 32 375 34 377 36

C379 39 381 41 383 42

C384 43 385 44 385 44

C385 45 391 49 393 49

C394 49 394 46 391 42

C390 40 389 38 389 37

C389 36 389 36 391 37

C393 39 398 39 398 38

C398 38 395 35 392 32

C389 29 385 25 384 23

L381 20

L385 22

C387 23 390 24 393 25

C399 26 398 24 391 14

L384 5

L388 8

C393 10 404 13 409 13

C411 13 412 12 414 10

C417 5 417 5 417 9

L416 12

L419 10

C420 9 423 7 424 5

C426 3 428 2 428 2

C428 2 429 3 430 5

C431 7 433 10 435 12

C439 16 439 16 446 8

C449 4 450 3 450 5

C449 7 450 9 451 11

C451 12 452 14 452 15

C452 15 454 17 455 19

C459 22 465 23 473 23

L480 22

L476 24

C474 24 470 27 466 29

L460 34

L463 34

C465 34 468 34 469 35

C471 35 471 35 469 37

C467 39 469 39 477 37

C483 35 484 34 482 36

C476 40 475 41 477 42

C478 43 481 43 483 43

C486 43 487 43 486 44

C484 44 482 45 481 45

C477 45 469 50 468 54

C467 55 467 56 467 57

C467 57 472 58 477 60

C481 61 486 62 486 62

C486 63 485 64 483 66

C480 69 478 77 480 79

C480 80 484 81 488 82

L495 85

L490 85

C487 85 480 86 475 87

C470 88 463 89 461 90

L457 91

L463 92

C471 95 474 97 473 98

C473 100 477 103 480 103

C481 103 482 103 482 104

C482 105 481 105 479 105

C476 105 472 107 472 109

C472 109 473 111 475 113

C477 116 477 117 472 115

C467 112 464 113 463 115

C462 117 462 118 463 120

C465 124 464 123 457 117

C449 110 447 112 449 121

C449 124 450 126 450 126

C449 126 447 123 445 120

C440 111 437 110 437 116

C437 118 436 121 435 123

C434 126 434 126 435 118

C435 110 435 109 433 107

C432 106 431 106 431 109

C431 112 431 112 429 107

C429 104 427 100 425 98

C423 94 422 94 418 94

C413 94 409 97 402 105

C400 109 397 112 396 113

C394 115 394 115 395 114

C396 109 391 116 385 126

C379 136 377 138 379 133

C379 131 380 130 379 130

C378 128 373 129 370 132

C366 134 364 135 364 133

C364 133 366 131 368 129

C371 127 372 125 372 125

C371 124 357 128 349 132

C342 136 337 137 337 136

Z

M411 124

C411 122 413 120 414 121

C414 122 414 123 413 124

C411 125 411 125 411 124

Z

M55 122

C54 121 53 119 53 118

C53 117 53 117 55 118

C56 119 58 121 59 122

C60 124 60 124 59 124

C58 124 56 123 55 122

Z

M38 121

C37 118 39 118 41 120

C42 122 42 122 40 122

C39 122 38 121 38 121

Z

M484 117

L482 115

L485 115

C486 116 488 117 489 118

C491 120 487 119 484 117

Z

M199 115

C205 109 206 109 206 110

C206 112 199 118 197 118

C195 118 196 118 199 115

Z

M363 117

C363 116 367 113 370 112

C372 112 372 112 371 114

C369 116 363 118 363 117

Z

M411 117

C411 117 412 114 413 112

C414 110 414 108 413 107

C412 107 412 106 412 106

C412 106 414 105 416 104

L420 102

L422 106

C424 109 424 110 421 114

C420 115 420 115 418 114

C416 113 416 113 414 116

C412 117 411 118 411 117

Z

M15 113

C14 112 13 110 14 110

C14 109 17 111 18 113

C20 116 17 116 15 113

Z

M62 107

C61 107 61 106 61 105

C62 105 67 107 67 108

C67 110 63 109 62 107

Z

M5 105

C5 103 4 101 4 100

C5 98 5 98 7 101

C8 103 9 105 9 106

C9 108 7 107 5 105

Z

M340 105

C340 104 346 97 348 96

C350 95 350 95 348 98

C347 101 340 106 340 105

Z

M89 102

C88 100 88 98 89 98

C89 97 91 98 91 100

C93 102 93 103 92 103

C91 103 90 102 89 102

Z

M367 101

C368 98 372 96 374 96

C376 96 375 97 372 99

C367 103 365 104 367 101

Z

M98 101

C98 100 96 97 92 93

C89 90 87 87 87 86

C88 85 92 88 96 92

C99 95 100 95 100 93

C100 92 100 92 102 94

C103 95 104 98 105 99

L106 102

L102 102

C99 102 98 102 98 101

Z

M414 99

C413 98 415 95 417 95

C417 95 418 95 418 96

C418 97 414 100 414 99

Z

M482 96

C478 94 477 93 480 92

C484 91 492 91 494 92

C495 93 494 93 490 93

C484 93 484 93 485 94

C490 98 491 98 489 98

C487 98 485 97 482 96

Z

M213 91

C213 89 213 87 214 87

C215 87 216 92 216 93

C215 96 213 95 213 91

Z

M384 93

C384 92 389 90 390 91

C390 92 385 95 384 95

C383 95 383 94 384 93

Z

M58 82

C56 80 54 74 55 74

C56 74 62 82 62 83

C62 85 60 84 58 82

Z

M325 82

C326 82 326 82 327 82

C327 83 326 83 325 83

C324 83 324 83 325 82

Z

M93 73

C92 71 91 70 92 70

C94 70 95 72 95 74

C95 75 94 75 93 73

Z

M485 69

C485 67 491 61 492 61

C494 61 499 63 499 64

C499 65 494 68 492 68

C492 68 491 69 491 69

C491 70 490 70 488 70

C486 70 485 69 485 69

Z

M48 62

C47 60 48 57 49 58

C50 58 50 64 49 64

C49 64 48 63 48 62

Z

M324 58

C321 55 321 55 323 55

C325 55 332 58 332 59

C332 61 326 60 324 58

Z

M304 45

C303 44 303 44 304 44

C305 44 306 44 307 45

C308 46 308 46 307 46

C306 46 305 46 304 45

Z

M384 37

C383 36 383 34 383 33

C384 32 384 32 385 34

C386 37 386 39 384 37

Z

M473 29

C476 26 483 24 485 24

C488 24 479 29 474 29

C471 30 471 30 473 29

Z

M370 25

C370 25 370 24 371 25

C372 25 372 26 372 26

C372 27 372 27 371 27

C370 27 370 26 370 25

Z

M374 12

C373 11 372 10 372 10

C373 9 378 12 378 13

C378 15 376 14 374 12

Z

M412 5

C412 4 413 4 414 3

C415 2 415 2 415 3

C415 4 414 5 414 5

C413 5 412 5 412 5

Z

"/>

<path fill="#6abf8d" stroke="none" d="
M131 195

C131 193 133 191 134 190

C136 188 135 193 133 196

C130 200 129 200 131 195

Z

M77 198

C77 197 78 195 79 193

C80 190 81 187 81 187

C81 186 79 186 76 186

C73 186 72 186 74 185

C75 184 77 184 78 183

C82 183 83 181 80 180

C76 180 70 181 71 182

C71 183 69 185 67 185

C66 185 65 184 66 184

C66 182 65 182 60 183

L54 183

L60 181

C63 180 68 178 71 178

C78 176 81 174 79 172

C78 170 68 167 51 162

C46 161 43 159 44 159

C45 159 41 158 36 159

L28 159

L37 156

C49 153 50 152 46 148

C42 145 42 145 41 147

C40 148 39 148 39 147

C39 145 35 144 30 145

C28 146 24 147 23 147

C21 147 22 146 27 144

C30 142 33 140 33 140

C32 138 26 135 23 135

C19 134 20 132 25 132

C28 132 28 132 22 128

C18 127 13 125 12 125

L10 125

L12 123

L15 121

L11 118

C8 116 6 114 6 114

C6 113 6 113 7 113

C31 125 52 134 46 128

C44 127 44 127 48 127

C50 128 53 129 56 130

C58 130 60 131 61 131

C63 131 63 131 62 129

C61 128 61 128 65 129

C71 130 79 129 85 128

C89 127 90 126 90 125

C90 122 82 115 78 114

C77 113 75 112 74 112

C72 110 72 110 74 110

C76 110 77 110 77 109

C77 109 73 104 68 99

C60 89 60 89 64 91

C67 92 74 97 80 101

C93 109 108 116 113 118

C116 119 117 119 118 117

C119 116 118 115 110 113

L103 111

L108 111

C117 111 118 110 114 108

C111 106 111 106 113 106

C116 106 116 105 111 100

C107 96 107 96 110 97

C113 98 113 97 106 87

C103 82 100 78 100 78

C100 77 103 80 107 84

C111 88 114 91 114 90

C113 88 113 86 112 85

C112 82 112 82 115 87

C123 101 136 111 163 120

C171 123 177 125 182 126

L190 126

L196 122

C203 117 211 108 215 100

C218 94 218 93 217 86

C217 77 219 76 220 85

C220 88 221 91 221 91

C221 91 223 89 223 87

L225 83

L224 88

C223 101 211 117 197 125

C192 128 187 133 180 139

C168 153 164 157 158 168

C152 177 152 177 154 171

C154 169 154 169 152 169

C151 169 148 174 145 181

C138 194 137 196 138 190

C138 188 139 183 140 177

C140 166 140 165 131 173

C119 184 118 185 123 178

C124 176 125 175 124 175

C121 175 104 181 94 186

C82 191 78 193 82 192

C84 192 85 193 82 195

C80 197 77 198 77 198

Z

M115 93

C115 93 115 92 114 92

C114 93 114 93 114 94

C115 96 116 95 115 93

Z

M113 186

C113 185 114 184 115 184

C116 184 116 184 116 186

C116 187 115 188 114 188

C113 188 113 188 113 186

Z

M29 181

C28 181 20 171 20 170

C20 169 22 170 24 172

C28 175 31 176 38 178

C40 179 42 180 41 180

C40 181 31 182 29 181

Z

M48 181

C48 180 50 179 51 179

C52 179 53 179 53 180

C53 181 51 182 50 182

C49 182 48 182 48 181

Z

M61 171

C60 170 60 170 62 169

C64 168 67 169 67 170

C67 171 63 172 61 171

Z

M16 145

C15 145 12 145 9 145

C3 145 1 144 6 142

C7 142 10 141 13 140

C17 138 21 138 21 140

C21 142 17 146 16 145

Z

M55 122

C54 121 53 119 53 118

C53 117 53 117 55 118

C56 119 58 121 59 122

C60 124 60 124 59 124

C58 124 56 123 55 122

Z

M38 121

C37 118 39 118 41 120

C42 122 42 122 40 122

C39 122 38 121 38 121

Z

M199 115

C205 109 206 109 206 110

C206 112 199 118 197 118

C195 118 196 118 199 115

Z

M15 113

C14 112 13 110 14 110

C14 109 17 111 18 113

C20 116 17 116 15 113

Z

M62 107

C61 107 61 106 61 105

C62 105 67 107 67 108

C67 110 63 109 62 107

Z

M5 105

C5 103 4 101 4 100

C5 98 5 98 7 101

C8 103 9 105 9 106

C9 108 7 107 5 105

Z

M89 102

C88 100 88 98 89 98

C89 97 91 98 91 100

C93 102 93 103 92 103

C91 103 90 102 89 102

Z

M403 100

C405 98 407 96 407 96

C407 96 406 98 404 100

C402 101 400 103 400 103

C400 103 401 101 403 100

Z

M98 101

C98 100 96 97 92 93

C89 90 87 87 87 86

C88 85 92 88 96 92

C99 95 100 95 100 93

C100 92 100 92 102 94

C103 95 104 98 105 99

L106 102

L102 102

C99 102 98 102 98 101

Z

M213 91

C213 89 213 87 214 87

C215 87 216 92 216 93

C215 96 213 95 213 91

Z

M58 82

C56 80 54 74 55 74

C56 74 62 82 62 83

C62 85 60 84 58 82

Z

M93 73

C92 71 91 70 92 70

C94 70 95 72 95 74

C95 75 94 75 93 73

Z

M48 62

C47 60 48 57 49 58

C50 58 50 64 49 64

C49 64 48 63 48 62

Z

"/>

<path fill="#1a9d50" stroke="none" d="
M130 197

C130 196 134 190 135 190

C135 191 133 195 132 197

C131 198 130 198 130 197

Z

M79 195

C79 194 81 193 82 193

C83 193 83 193 82 195

C81 196 79 197 78 197

C77 197 77 197 79 195

Z

M80 190

C83 186 82 185 77 185

C74 186 74 186 76 185

C77 184 79 183 80 183

C83 183 82 181 78 180

C77 180 73 180 71 181

C68 181 63 182 61 182

C55 183 56 183 69 179

C80 175 81 175 79 172

C78 170 73 168 59 164

C53 162 47 160 46 159

C44 158 43 158 39 158

C30 160 29 159 38 156

C43 155 47 154 48 154

C50 152 49 150 45 147

L42 144

L41 146

C40 148 40 148 39 147

C39 144 35 144 31 145

C23 147 21 147 27 144

C35 140 34 136 24 134

L20 134

L24 133

L29 131

L22 128

C19 126 14 125 13 125

L11 125

L13 123

C15 121 15 120 13 120

C13 119 11 118 9 117

C5 113 8 114 14 117

C22 121 38 128 43 129

C45 130 46 130 47 129

C48 128 49 128 53 129

C60 131 64 132 62 130

C61 129 63 129 69 129

C78 130 89 129 90 126

C91 124 91 123 86 118

C82 115 79 113 78 113

C77 113 76 112 75 112

C73 111 73 111 75 110

L78 110

L72 102

C62 90 62 90 66 92

C68 93 74 97 80 101

C93 109 110 118 114 119

C119 119 120 117 117 115

C116 114 113 113 110 112

L105 112

L112 111

L120 110

L116 109

C112 107 112 107 114 106

C117 106 117 105 112 101

C110 98 109 97 110 97

C114 99 113 96 107 88

C104 83 101 79 101 79

C101 77 112 89 113 92

C114 94 115 95 115 95

C116 95 116 95 115 91

C112 84 113 84 117 91

C123 100 131 106 145 113

C161 121 176 126 184 126

C190 126 191 126 197 122

C207 115 221 95 218 90

C217 88 217 81 218 81

C218 81 219 83 219 87

C220 92 221 93 223 89

C224 87 224 88 223 91

C222 102 212 114 198 124

C193 128 185 134 179 140

C165 154 162 159 156 171

C153 175 153 175 154 172

C154 169 154 169 152 169

C150 169 149 171 144 181

C140 188 138 191 139 189

C140 182 141 171 140 169

C139 167 139 167 137 168

C136 169 131 172 128 176

C123 180 122 181 123 179

C124 178 125 176 125 176

C125 173 106 179 91 187

C85 189 80 192 80 192

C79 192 80 191 80 190

Z

M113 188

C113 186 115 183 115 184

C116 184 115 186 115 187

C114 188 113 188 113 188

Z

M66 183

C69 182 70 182 70 183

C70 184 68 185 66 185

C65 185 65 184 66 183

Z

M49 181

C48 180 49 180 50 180

C51 180 52 180 52 181

C51 182 50 182 50 182

C50 182 49 182 49 181

Z

M25 176

C23 173 21 171 22 171

C22 171 23 171 24 172

C25 174 31 177 37 178

C41 179 42 179 40 180

C39 181 36 181 34 181

C29 181 29 181 25 176

Z

M62 170

C61 169 62 169 64 169

C66 169 67 169 67 170

C66 171 65 171 64 171

C63 171 62 171 62 170

Z

M16 144

C16 144 14 144 12 144

C4 144 3 144 9 142

C12 141 15 139 15 139

C15 139 16 139 18 139

C21 139 21 139 20 142

C19 144 16 146 16 144

Z

M55 122

C54 120 53 119 53 118

C53 117 55 118 57 120

C58 122 60 124 60 124

C60 125 58 124 55 122

Z

M38 121

C37 119 39 119 40 120

C41 121 41 122 40 122

C40 122 39 122 38 121

Z

M200 114

C202 112 205 110 205 110

C206 111 203 115 200 116

C195 119 195 118 200 114

Z

M16 113

C15 113 14 111 14 110

C14 109 14 109 16 111

C19 115 19 116 16 113

Z

M63 107

C62 106 61 106 61 105

C62 105 66 107 66 108

C66 110 64 109 63 107

Z

M7 105

C6 104 5 102 4 101

C4 99 4 99 5 100

C7 101 9 107 9 107

C8 107 8 106 7 105

Z

M90 102

C89 101 89 99 89 99

C90 98 90 98 91 100

C92 103 92 104 90 102

Z

M403 100

C405 98 407 96 407 96

C407 96 406 98 404 100

C402 101 400 103 400 103

C400 103 401 101 403 100

Z

M98 100

C98 99 96 96 93 93

C90 90 88 87 88 87

C88 86 93 89 96 92

C98 94 100 95 100 94

C100 93 102 95 103 97

L106 102

L102 102

C99 102 98 102 98 100

Z

M214 93

C213 91 213 88 214 88

C215 88 215 90 215 92

C215 95 215 96 214 93

Z

M59 81

C57 80 56 78 56 76

L55 74

L57 76

C60 80 62 84 62 84

C61 84 60 83 59 81

Z

M93 72

C92 70 92 70 94 71

C95 72 95 74 94 74

C94 74 93 73 93 72

Z

M48 61

C48 59 48 58 49 59

C50 59 50 60 50 61

C50 61 50 62 49 63

C48 63 48 62 48 61

Z

"/>

</svg>

